<svg width="5033" height="1054" viewBox="0 0 5033 1054" fill="none" xmlns="http://www.w3.org/2000/svg">
  <path d="M281.063 378.07L195.549 526.52L281.063 674.489L366.578 822.458L537.607 823.899L709.116 824.86L793.67 678.812C840.271 598.102 878.224 529.402 878.224 526.039C878.224 522.676 840.751 454.937 794.631 375.668L711.519 231.542L539.048 230.581L366.578 229.14L281.063 378.07ZM695.665 251.72C695.665 254.122 691.341 262.77 686.056 270.937L676.448 286.791H538.087H399.727L388.677 267.574L378.108 248.357H536.646C624.082 248.357 695.665 249.798 695.665 251.72ZM713.44 425.632L771.571 526.039L712.96 627.408L654.829 728.776H538.568H422.787L364.176 627.408L305.564 526.52L337.753 470.311C355.528 439.564 381.951 393.924 396.364 369.423L422.306 325.224H539.048H655.79L713.44 425.632ZM687.498 784.024C691.821 793.633 695.665 802.28 695.665 803.241C695.665 804.682 624.082 805.643 537.126 805.643H378.588L388.197 786.426L397.805 767.21H538.568H679.33L687.498 784.024Z" fill="black"/>
  <path d="M75.4438 391.042C34.6082 461.663 0.498404 520.755 0.0179851 523.157C-1.42327 526.52 84.0913 678.813 136.457 766.249L151.83 792.191L172.008 756.64C183.538 737.424 195.549 716.285 199.392 709.559C206.118 698.029 204.196 693.706 157.115 611.554C108.593 527.961 107.632 525.559 114.838 513.068C119.162 506.342 141.261 467.909 164.321 428.034L206.118 355.01L181.136 311.292C167.684 287.271 154.713 266.613 152.791 265.172C150.87 264.211 116.279 320.9 75.4438 391.042Z" fill="black"/>
  <path d="M898.882 306.487C884.95 330.508 873.42 352.127 873.42 355.01C873.42 357.892 895.039 397.767 921.462 443.407L969.984 526.039L921.462 609.632C895.039 655.752 873.42 695.627 873.42 698.029C873.42 700.431 884.95 722.53 899.362 747.512C924.825 791.711 925.305 792.191 932.511 781.142C936.355 774.896 970.945 714.844 1009.86 648.065L1080 526.519L1004.09 394.885C962.778 322.341 927.707 263.25 926.266 263.25C924.825 262.769 912.334 282.467 898.882 306.487Z" fill="black"/>
  <rect width="50" height="988" transform="translate(1280 33)" fill="black"/>
  <path d="M1595.53 748V232.75H1671.28L1852.03 569.5L2032.78 232.75H2108.53V748H2032.78V381.25L1852.03 718L1671.28 381.25V748H1595.53ZM2636.08 748L2591.08 643H2322.58L2277.58 748H2193.58L2414.83 232.75H2498.83L2720.08 748H2636.08ZM2351.83 574.75H2561.83L2456.83 330.25L2351.83 574.75ZM2804.76 748V232.75H2982.51C3149.01 232.75 3267.51 339.25 3267.51 490C3267.51 640.75 3149.01 748 2982.51 748H2804.76ZM2880.51 679H2987.01C3106.26 679 3189.51 601 3189.51 490C3189.51 379.75 3106.26 301.75 2987.01 301.75H2880.51V679ZM3367.8 748V232.75H3443.55V748H3367.8ZM3565.74 748V232.75H3641.49L3937.74 623.5V232.75H4013.49V748H3937.74L3641.49 357.25V748H3565.74ZM4179.61 757C4151.11 757 4129.36 733.75 4129.36 706C4129.36 680.5 4151.11 657.25 4179.61 657.25C4206.61 657.25 4228.36 680.5 4228.36 706C4228.36 733.75 4206.61 757 4179.61 757ZM4334.59 748V232.75H4410.34V748H4334.59ZM4929.29 748L4884.29 643H4615.79L4570.79 748H4486.79L4708.04 232.75H4792.04L5013.29 748H4929.29ZM4645.04 574.75H4855.04L4750.04 330.25L4645.04 574.75Z" fill="black"/>
</svg>
