<svg version="1.0" xmlns="http://www.w3.org/2000/svg" width="400.000000pt" height="400.000000pt"
  viewBox="0 0 400.000000 400.000000" preserveAspectRatio="xMidYMid meet">

  <g transform="translate(0.000000,400.000000) scale(0.100000,-0.100000)" fill="#000000" stroke="none">
    <path d="M1507 2300 l-178 -309 178 -308 178 -308 356 -3 357 -2 176 304 c97
168 176 311 176 318 0 7 -78 148 -174 313 l-173 300 -359 2 -359 3 -178 -310z
m863 263 c0 -5 -9 -23 -20 -40 l-20 -33 -288 0 -288 0 -23 40 -22 40 330 0
c182 0 331 -3 331 -7z m37 -362 l121 -209 -122 -211 -121 -211 -242 0 -241 0
-122 211 -122 210 67 117 c37 64 92 159 122 210 l54 92 243 0 243 0 120 -209z
m-54 -746 c9 -20 17 -38 17 -40 0 -3 -149 -5 -330 -5 l-330 0 20 40 20 40 293
0 293 0 17 -35z" />
    <path d="M1079 2273 c-85 -147 -156 -270 -157 -275 -3 -7 175 -324 284 -506
l32 -54 42 74 c24 40 49 84 57 98 14 24 10 33 -88 204 -101 174 -103 179 -88
205 9 14 55 94 103 177 l87 152 -52 91 c-28 50 -55 93 -59 96 -4 2 -76 -116
-161 -262z" />
    <path d="M2793 2449 c-29 -50 -53 -95 -53 -101 0 -6 45 -89 100 -184 l101
-172 -101 -174 c-55 -96 -100 -179 -100 -184 0 -5 24 -51 54 -103 53 -92 54
-93 69 -70 8 13 80 138 161 277 l146 253 -158 274 c-86 151 -159 274 -162 274
-3 1 -29 -40 -57 -90z" />
  </g>
</svg>
