<svg width="200" height="200" viewBox="0 0 200 200" fill="none" xmlns="http://www.w3.org/2000/svg">
<path opacity="0.16" d="M56.3933 76.2154C62.547 71.9482 69.9678 69.7037 77.3253 70.0627C70.4774 73.069 64.04 77.6281 59.7539 84.1426C54.5643 91.8452 52.7407 101.565 53.0548 110.89C53.6773 123.508 60.3957 135.544 70.3535 142.435C72.7747 144.146 75.4632 145.343 78.182 146.399C70.6785 146.904 63.0456 144.794 56.7211 140.492C49.6749 135.754 44.2594 128.353 41.7252 119.926C39.4775 112.554 39.4224 104.448 41.582 97.0434C44.0198 88.5499 49.3719 81.0517 56.3933 76.2154Z" fill="#919EAB"/>
<path opacity="0.48" d="M85.4815 72.3506C89.8333 70.6476 94.5042 69.8706 99.1366 70.0897C91.7589 73.0779 84.9891 78.2541 80.6951 85.3727C76.9677 91.466 75.1769 98.719 74.8441 105.928C73.719 120.11 80.662 134.42 91.7286 142.281C94.2841 144.066 97.0624 145.514 100 146.429C92.8922 146.896 85.663 145.079 79.5425 141.206C72.1428 136.585 66.388 129.072 63.673 120.42C60.317 109.901 61.5548 97.8485 67.0675 88.3989C71.2762 81.0583 77.8645 75.2775 85.4815 72.3506Z" fill="#919EAB"/>
<path d="M118.968 70.1076C127.187 69.4804 135.589 71.61 142.496 76.1174C151.805 82.0834 158.303 92.2622 159.665 103.252C161.05 113.399 158.099 124.041 151.671 132.012C146.093 139.072 137.948 144.049 129.108 145.744C122.688 147.004 115.948 146.563 109.744 144.483C103.683 142.465 98.149 138.885 93.8196 134.182C87.6593 127.58 83.9713 118.726 83.6681 109.694C83.3211 101.356 85.8197 92.9332 90.6739 86.1444C97.1112 76.9547 107.767 70.8807 118.968 70.1076Z" fill="#919EAB"/>
</svg>
