<svg width="200" height="200" viewBox="0 0 200 200" fill="none" xmlns="http://www.w3.org/2000/svg">
<rect opacity="0.24" x="36.667" y="55" width="126.667" height="80" rx="12" fill="#919EAB"/>
<path opacity="0.48" d="M44.621 134.791C40.0794 133.846 36.667 129.822 36.667 125V122.402L62.8798 96.232C66.7521 92.3673 73.1286 92.3673 77.0009 96.232L115.834 135H48.5878C48.0186 135 45.417 134.886 44.904 134.828C44.809 134.817 44.7146 134.804 44.621 134.791Z" fill="#919EAB"/>
<path opacity="0.16" d="M153.334 135H115.834L90.7642 109.972L122.929 77.8257C126.699 74.0581 132.906 74.0581 136.676 77.8257L163.334 104.468V125C163.334 130.523 158.857 135 153.334 135Z" fill="#919EAB"/>
<path d="M26.8074 85C26.1955 85 25.6045 85.2273 25.144 85.6396L16.8626 93.0547C15.8128 93.9947 15.7064 95.6278 16.625 96.7021C16.6989 96.7885 16.7782 96.8697 16.8626 96.9453L25.144 104.36C26.1939 105.3 27.7897 105.192 28.7084 104.117C29.1113 103.646 29.3333 103.041 29.3333 102.415V87.5848C29.3333 86.1573 28.2024 85 26.8074 85Z" fill="#919EAB"/>
<path opacity="0.48" d="M173.192 85C171.797 85 170.667 86.1573 170.667 87.5848V102.415C170.667 103.041 170.889 103.646 171.291 104.117C172.21 105.192 173.806 105.3 174.856 104.36L183.137 96.9453C183.222 96.8697 183.301 96.7885 183.375 96.7021C184.293 95.6278 184.187 93.9947 183.137 93.0547L174.856 85.6396C174.395 85.2273 173.804 85 173.192 85Z" fill="#919EAB"/>
<path opacity="0.24" d="M78 149C81.0376 149 83.5 151.462 83.5 154.5C83.5 157.538 81.0376 160 78 160C74.9624 160 72.5 157.538 72.5 154.5C72.5 151.462 74.9624 149 78 149Z" fill="#919EAB"/>
<path d="M100 147C104.142 147 107.5 150.358 107.5 154.5C107.5 158.642 104.142 162 100 162C95.8579 162 92.5 158.642 92.5 154.5C92.5 150.358 95.8579 147 100 147Z" fill="#919EAB"/>
<path opacity="0.24" d="M122 149C125.038 149 127.5 151.462 127.5 154.5C127.5 157.538 125.038 160 122 160C118.962 160 116.5 157.538 116.5 154.5C116.5 151.462 118.962 149 122 149Z" fill="#919EAB"/>
<path d="M101.911 98.8307C100.374 94.1849 95.9949 90.833 90.8334 90.833C85.6297 90.833 81.2218 94.2398 79.7183 98.9447L94.4069 113.609C94.4068 113.609 94.407 113.609 94.4069 113.609L90.7641 109.972L101.911 98.8307Z" fill="#919EAB"/>
</svg>
