<svg width="200" height="200" viewBox="0 0 200 200" fill="none" xmlns="http://www.w3.org/2000/svg">
<rect opacity="0.24" x="40" y="64" width="120" height="88.4211" rx="12" fill="#919EAB"/>
<path d="M66.8422 101.895C72.9464 101.895 77.8948 96.9464 77.8948 90.8422C77.8948 84.738 72.9464 79.7896 66.8422 79.7896C60.738 79.7896 55.7896 84.738 55.7896 90.8422C55.7896 96.9464 60.738 101.895 66.8422 101.895Z" fill="#919EAB"/>
<path opacity="0.48" d="M47.5354 152.222C43.2329 151.328 40 147.515 40 142.947V140.485L64.8332 115.693C68.5016 112.032 74.5426 112.032 78.211 115.693L115 152.421H51.2934C50.7541 152.421 48.2895 152.312 47.8035 152.258C47.7134 152.247 47.6241 152.235 47.5354 152.222Z" fill="#919EAB"/>
<path opacity="0.16" d="M160 142.947C160 148.179 155.758 152.421 150.526 152.421H69.1546C69.1495 152.421 69.1443 152.421 69.1392 152.421H115L91.25 128.71L121.722 98.2558C125.293 94.6865 131.174 94.6865 134.745 98.2558L160 123.496V142.947Z" fill="#919EAB"/>
</svg>
