<svg width="200" height="200" viewBox="0 0 200 200" fill="none" xmlns="http://www.w3.org/2000/svg">
<path opacity="0.24" d="M100 154C129.823 154 154 129.823 154 100C154 70.1766 129.823 46 100 46C70.1766 46 46 70.1766 46 100C46 129.823 70.1766 154 100 154Z" fill="#919EAB"/>
<path d="M98.1026 116.525L90.1573 120.702C88.4922 121.577 86.4326 120.937 85.5572 119.272C85.2086 118.609 85.0883 117.849 85.2149 117.111L86.7323 108.264C86.967 106.895 86.5133 105.499 85.519 104.53L79.0912 98.264C77.744 96.9509 77.7165 94.7943 79.0296 93.4471C79.5525 92.9107 80.2377 92.5616 80.979 92.4538L89.8621 91.1631C91.2362 90.9634 92.424 90.1004 93.0385 88.8552L97.0111 80.8058C97.8437 79.1188 99.8863 78.4262 101.573 79.2588C102.245 79.5903 102.789 80.134 103.12 80.8058L107.093 88.8552C107.707 90.1004 108.895 90.9634 110.269 91.1631L119.152 92.4538C121.014 92.7244 122.304 94.4529 122.034 96.3146C121.926 97.0559 121.577 97.7411 121.04 98.264L114.612 104.53C113.618 105.499 113.164 106.895 113.399 108.264L114.917 117.111C115.235 118.965 113.989 120.726 112.135 121.044C111.397 121.171 110.637 121.05 109.974 120.702L102.029 116.525C100.8 115.879 99.3316 115.879 98.1026 116.525Z" fill="#919EAB"/>
</svg>
