<svg width="200" height="200" viewBox="0 0 200 200" fill="none" xmlns="http://www.w3.org/2000/svg">
<path fill-rule="evenodd" clip-rule="evenodd" d="M170 62.7674C170 68.1619 165.627 72.5349 160.233 72.5349C154.838 72.5349 150.465 68.1619 150.465 62.7674C150.465 57.373 154.838 53 160.233 53C165.627 53 170 57.373 170 62.7674ZM162.172 62.8789L164.849 65.5557C165.354 66.0608 165.354 66.8791 164.849 67.3839C164.597 67.6362 164.266 67.7624 163.935 67.7624C163.604 67.7624 163.274 67.6362 163.021 67.3839L160.344 64.707L157.667 67.3837C157.415 67.636 157.084 67.7622 156.753 67.7622C156.422 67.7622 156.092 67.6362 155.839 67.3837C155.334 66.8791 155.334 66.0605 155.839 65.5555L158.516 62.8786L155.839 60.2018C155.334 59.6972 155.334 58.8787 155.839 58.3736C156.344 57.8688 157.162 57.8688 157.667 58.3736L160.344 61.0507L163.021 58.3738C163.526 57.869 164.344 57.869 164.849 58.3738C165.354 58.8787 165.354 59.6972 164.849 60.202L162.172 62.8789Z" fill="#919EAB"/>
<rect opacity="0.24" x="47.9067" y="85.5581" width="104.186" height="78.1395" rx="12" fill="#919EAB"/>
<path opacity="0.48" d="M58.0812 163.698C51.7281 163.652 47.9067 158.964 47.9067 153.188V149.034L80.7296 137.661C83.3427 136.756 86.2377 137.165 88.4907 138.758L95.2732 143.554C97.8666 145.388 101.429 145.048 103.62 142.758L136.297 110.981C138.75 108.419 142.555 107.64 145.832 109.031L152.093 111.687V153.188C152.093 158.964 148.678 163.652 142.325 163.698H58.0812Z" fill="#919EAB"/>
<g opacity="0.24">
<path d="M142.322 108.35L142.326 108.349L142.324 108.35L142.322 108.35Z" fill="#919EAB"/>
<path d="M136.006 111.264L113.608 121.598C109.088 123.683 104.021 123.942 99.3376 122.327L91.2859 119.55C87.1755 118.132 82.6778 119.048 79.332 121.983L47.9316 149.025L80.7298 137.661C83.3428 136.756 86.2379 137.165 88.4909 138.758L95.2734 143.554C97.8667 145.388 101.429 145.048 103.621 142.758L136.006 111.264Z" fill="#919EAB"/>
</g>
<path d="M37.917 117.302C37.4688 117.302 37.0358 117.469 36.6985 117.771L30.6319 123.203C29.8628 123.891 29.7849 125.088 30.4579 125.875C30.512 125.938 30.5701 125.998 30.6319 126.053L36.6985 131.485C37.4676 132.174 38.6366 132.094 39.3096 131.307C39.6048 130.962 39.7674 130.518 39.7674 130.06V119.196C39.7674 118.15 38.939 117.302 37.917 117.302Z" fill="#919EAB"/>
<path opacity="0.48" d="M162.083 117.302C161.061 117.302 160.232 118.15 160.232 119.196V130.06C160.232 130.519 160.395 130.962 160.69 131.307C161.363 132.094 162.532 132.174 163.301 131.485L169.368 126.053C169.43 125.998 169.488 125.938 169.542 125.875C170.215 125.088 170.137 123.892 169.368 123.203L163.301 117.771C162.964 117.469 162.531 117.302 162.083 117.302Z" fill="#919EAB"/>
</svg>
