<svg width="200" height="200" viewBox="0 0 200 200" fill="none" xmlns="http://www.w3.org/2000/svg">
<rect opacity="0.24" x="38.125" y="88.3999" width="125.4" height="66" rx="12" fill="#919EAB"/>
<rect opacity="0.4" x="52.1499" y="109.85" width="23.1" height="8.25" rx="4.125" fill="#919EAB"/>
<rect opacity="0.16" x="52.1499" y="124.7" width="52.8" height="8.25" rx="4.125" fill="#919EAB"/>
<path d="M34 70C34 65.5817 37.5817 62 42 62H65.6C70.0183 62 73.6 65.5817 73.6 70V73.8C73.6 78.2183 70.0183 81.8 65.6 81.8H42C37.5817 81.8 34 78.2183 34 73.8V70Z" fill="#919EAB"/>
<rect opacity="0.8" x="43.8999" y="68.6001" width="19.8" height="6.6" rx="3.3" fill="white"/>
<path opacity="0.4" d="M80.2002 71.9C80.2002 66.4324 84.6326 62 90.1002 62H109.9C115.368 62 119.8 66.4324 119.8 71.9V71.9C119.8 77.3676 115.368 81.8 109.9 81.8H90.1002C84.6326 81.8 80.2002 77.3676 80.2002 71.9V71.9Z" fill="#919EAB"/>
<rect x="90.1001" y="68.6001" width="19.8" height="6.6" rx="3.3" fill="#919EAB"/>
<path opacity="0.24" d="M126.4 71.9C126.4 66.4324 130.832 62 136.3 62H156.1C161.568 62 166 66.4324 166 71.9V71.9C166 77.3676 161.568 81.8 156.1 81.8H136.3C130.832 81.8 126.4 77.3676 126.4 71.9V71.9Z" fill="#919EAB"/>
<rect opacity="0.24" x="136.3" y="68.6001" width="19.8" height="6.6" rx="3.3" fill="#919EAB"/>
</svg>
