<svg width="200" height="200" viewBox="0 0 200 200" fill="none" xmlns="http://www.w3.org/2000/svg">
<rect opacity="0.24" x="40" y="64" width="120" height="88.4211" rx="12" fill="#919EAB"/>
<path d="M135.139 133.474H64.8708C61.605 133.474 58.9473 130.82 58.9473 127.554V88.8666C58.9473 85.6009 61.605 82.9473 64.8708 82.9473H135.135C138.401 82.9473 141.059 85.6009 141.059 88.8666V127.554C141.063 130.82 138.405 133.474 135.139 133.474ZM78.6895 121.635V106.239L86.5848 116.106L94.48 106.239V121.635H102.375V94.786H94.48L86.5848 104.657L78.6895 94.786H70.7942V121.631H78.6895V121.635ZM131.586 108.21H123.691V94.786H115.791V108.21H107.896L119.743 122.029L131.586 108.21Z" fill="#919EAB"/>
</svg>
