<svg width="200" height="200" viewBox="0 0 200 200" fill="none" xmlns="http://www.w3.org/2000/svg">
<rect opacity="0.24" x="70" y="33" width="60" height="150" rx="12" fill="#919EAB"/>
<path d="M85 61.125C87.5888 61.125 89.6875 59.0263 89.6875 56.4375C89.6875 53.8487 87.5888 51.75 85 51.75C82.4112 51.75 80.3125 53.8487 80.3125 56.4375C80.3125 59.0263 82.4112 61.125 85 61.125Z" fill="#919EAB"/>
<path d="M115.312 52.2188H97.8125C95.3963 52.2188 93.4375 54.1075 93.4375 56.4375C93.4375 58.7675 95.3963 60.6562 97.8125 60.6562H115.312C117.729 60.6562 119.688 58.7675 119.688 56.4375C119.688 54.1075 117.729 52.2188 115.312 52.2188Z" fill="#919EAB"/>
<path opacity="0.48" d="M85 78C87.5888 78 89.6875 75.9013 89.6875 73.3125C89.6875 70.7237 87.5888 68.625 85 68.625C82.4112 68.625 80.3125 70.7237 80.3125 73.3125C80.3125 75.9013 82.4112 78 85 78Z" fill="#919EAB"/>
<path opacity="0.48" d="M115.312 69.0938H97.8125C95.3963 69.0938 93.4375 70.9825 93.4375 73.3125C93.4375 75.6425 95.3963 77.5312 97.8125 77.5312H115.312C117.729 77.5312 119.688 75.6425 119.688 73.3125C119.688 70.9825 117.729 69.0938 115.312 69.0938Z" fill="#919EAB"/>
<path opacity="0.36" d="M85 94.875C87.5888 94.875 89.6875 92.7763 89.6875 90.1875C89.6875 87.5987 87.5888 85.5 85 85.5C82.4112 85.5 80.3125 87.5987 80.3125 90.1875C80.3125 92.7763 82.4112 94.875 85 94.875Z" fill="#919EAB"/>
<path opacity="0.36" d="M115.312 85.9688H97.8125C95.3963 85.9688 93.4375 87.8575 93.4375 90.1875C93.4375 92.5175 95.3963 94.4062 97.8125 94.4062H115.312C117.729 94.4062 119.688 92.5175 119.688 90.1875C119.688 87.8575 117.729 85.9688 115.312 85.9688Z" fill="#919EAB"/>
<path opacity="0.24" d="M85 111.75C87.5888 111.75 89.6875 109.651 89.6875 107.062C89.6875 104.474 87.5888 102.375 85 102.375C82.4112 102.375 80.3125 104.474 80.3125 107.062C80.3125 109.651 82.4112 111.75 85 111.75Z" fill="#919EAB"/>
<path opacity="0.24" d="M115.312 102.844H97.8125C95.3963 102.844 93.4375 104.733 93.4375 107.062C93.4375 109.392 95.3963 111.281 97.8125 111.281H115.312C117.729 111.281 119.688 109.392 119.688 107.062C119.688 104.733 117.729 102.844 115.312 102.844Z" fill="#919EAB"/>
<path opacity="0.12" d="M85 128.625C87.5888 128.625 89.6875 126.526 89.6875 123.938C89.6875 121.349 87.5888 119.25 85 119.25C82.4112 119.25 80.3125 121.349 80.3125 123.938C80.3125 126.526 82.4112 128.625 85 128.625Z" fill="#919EAB"/>
<path opacity="0.12" d="M115.312 119.719H97.8125C95.3963 119.719 93.4375 121.608 93.4375 123.938C93.4375 126.267 95.3963 128.156 97.8125 128.156H115.312C117.729 128.156 119.688 126.267 119.688 123.938C119.688 121.608 117.729 119.719 115.312 119.719Z" fill="#919EAB"/>
</svg>
