<svg width="200" height="200" viewBox="0 0 200 200" fill="none" xmlns="http://www.w3.org/2000/svg">
<path opacity="0.24" d="M147.964 78.7952C147.924 78.1031 147.452 77.4432 146.844 77.1152C146.22 76.7792 145.464 76.7912 144.856 77.1552L138.274 81.1019C135.56 82.7286 131.921 82.9825 130.064 80.4215V80.4215C127.993 77.5648 129.979 73.9417 133.005 72.1267L140.273 67.7676C140.548 67.6018 140.78 67.372 140.949 67.0978C141.117 66.8235 141.217 66.5128 141.241 66.1917C141.262 65.8704 141.206 65.5487 141.077 65.2535C140.949 64.9584 140.751 64.6985 140.501 64.4959C136.929 61.6119 132.693 60.06 128.037 60C123.081 60 118.085 62.2958 114.33 66.3037C109.866 71.0594 107.802 75.7752 108.014 80.7111C108.13 83.4191 106.918 86.251 104.558 88.6188C104.082 89.1147 103.89 89.8188 104.058 90.4827C104.137 90.8111 104.299 91.1139 104.528 91.3624C104.757 91.6108 105.045 91.7968 105.366 91.9026C108.41 92.9105 111.298 94.8145 114.202 97.7223C115.369 98.8902 116.157 100.314 116.545 101.962C116.628 102.308 116.802 102.626 117.048 102.883C117.294 103.14 117.603 103.328 117.945 103.426C118.125 103.478 118.309 103.502 118.493 103.502C119.024 103.502 119.533 103.292 119.909 102.918L120.157 102.67C122.185 100.642 125.129 99.9981 127.997 99.9981V99.9981C133.481 99.9981 138.785 97.7101 142.552 93.7184C146.368 89.6708 148.292 84.371 147.964 78.7952ZM95.4422 125.961C95.2301 125.281 94.6781 124.753 93.9863 124.593C92.3823 124.217 90.9345 123.417 89.7945 122.277C86.8426 119.33 84.9147 116.414 83.8988 113.362C83.7912 113.038 83.6028 112.748 83.3516 112.517C83.1003 112.287 82.7944 112.125 82.4628 112.046C81.7908 111.882 81.0789 112.09 80.587 112.578L80.211 112.958C78.2471 114.918 75.3752 115.998 71.9994 115.998C60.9717 115.998 52 124.969 52 135.997C52 136.697 52.0879 137.369 52.18 138.045L52.2439 138.517C52.2858 138.846 52.4095 139.16 52.6037 139.43C52.7979 139.7 53.0565 139.917 53.3559 140.061C53.964 140.357 54.6759 140.325 55.2599 139.977L63.7221 134.9C66.4354 133.272 70.0752 133.018 71.9324 135.58V135.58C74.003 138.436 72.0178 142.058 68.9926 143.873L60.5676 148.928C60.2828 149.099 60.045 149.338 59.876 149.623C59.7069 149.909 59.6119 150.232 59.5996 150.564C59.5865 150.896 59.656 151.226 59.8019 151.524C59.9479 151.822 60.1656 152.079 60.4357 152.272C63.8516 154.7 67.8354 155.992 71.9632 156H71.9872C76.955 156 81.9708 153.668 85.7546 149.608C90.1584 144.884 92.1944 140.205 91.9863 135.301C91.8783 132.757 92.9502 130.129 95.0021 127.901C95.2401 127.645 95.4061 127.331 95.4834 126.99C95.5607 126.65 95.5464 126.295 95.4422 125.961Z" fill="#919EAB"/>
<path d="M147.784 149.1L140.888 135.313C139.868 133.269 137.812 131.997 135.525 131.997H132.825L109.826 108.998L111.462 107.362C113.317 105.51 113.317 102.49 111.378 100.55C108.89 98.0623 106.578 96.5183 104.102 95.6943C102.318 95.0982 100.902 93.6823 100.306 91.8985C99.4781 89.4185 97.9382 87.1067 95.4502 84.6228L74.2351 63.4117C69.8472 59.0238 62.1675 59.0039 57.7598 63.4117L55.4079 65.7596C53.212 67.9595 52 70.8834 52 74.0072C52 77.1151 53.212 80.039 55.4079 82.2389L76.6191 103.45C79.1069 105.938 81.4189 107.482 83.8947 108.306C85.6787 108.902 87.0946 110.318 87.6905 112.102C88.5145 114.582 90.0624 116.893 92.6223 119.453C93.5303 120.362 94.7261 120.861 96.0022 120.861C97.2702 120.861 98.4621 120.365 99.3621 119.465L100.998 117.83L123.997 140.829V143.528C123.997 145.816 125.269 147.872 127.313 148.896L141.1 155.792C141.38 155.925 141.686 155.995 141.996 155.996C142.527 155.996 143.036 155.786 143.412 155.412L147.412 151.412C147.708 151.114 147.903 150.731 147.97 150.316C148.037 149.901 147.972 149.476 147.784 149.1Z" fill="#919EAB"/>
</svg>
