<?xml version="1.0" encoding="UTF-8" standalone="no"?>
<svg
   xmlns:dc="http://purl.org/dc/elements/1.1/"
   xmlns:cc="http://creativecommons.org/ns#"
   xmlns:rdf="http://www.w3.org/1999/02/22-rdf-syntax-ns#"
   xmlns:svg="http://www.w3.org/2000/svg"
   xmlns="http://www.w3.org/2000/svg"
   xmlns:sodipodi="http://sodipodi.sourceforge.net/DTD/sodipodi-0.dtd"
   xmlns:inkscape="http://www.inkscape.org/namespaces/inkscape"
   viewBox="0 0 332083 402222"
   version="1.1"
   id="svg2"
   inkscape:version="0.48.4 r9939"
   width="100%"
   height="100%"
   sodipodi:docname="Blank_Map_of_Guyane_Department,_France,_with_Communes.svg">
  <metadata
     id="metadata32">
    <rdf:RDF>
      <cc:Work
         rdf:about="">
        <dc:format>image/svg+xml</dc:format>
        <dc:type
           rdf:resource="http://purl.org/dc/dcmitype/StillImage" />
      </cc:Work>
    </rdf:RDF>
  </metadata>
  <defs
     id="defs30" />
  <sodipodi:namedview
     pagecolor="#ffffff"
     bordercolor="#666666"
     borderopacity="1"
     objecttolerance="10"
     gridtolerance="10"
     guidetolerance="10"
     inkscape:pageopacity="0"
     inkscape:pageshadow="2"
     inkscape:window-width="1863"
     inkscape:window-height="1056"
     id="namedview28"
     showgrid="false"
     inkscape:zoom="0.012533263"
     inkscape:cx="181334.37"
     inkscape:cy="331741.72"
     inkscape:window-x="57"
     inkscape:window-y="24"
     inkscape:window-maximized="1"
     inkscape:current-layer="svg2" />
  <g
     style="fill:#b9b9b9;fill-opacity:1;stroke:#ffffff;stroke-width:1000;stroke-opacity:1"
     id="g4">
    <polygon
       id="97301 RÉGINA"
       points="228224,251992 228251,253177 229007,254097 229293,255243 228308,258678 228371,263843 227925,264931 227647,265217 227286,265385 222306,266803 221918,266894 219544,266753 218858,267149 218677,267504 218540,268690 219166,270995 219325,271360 220878,273668 221989,273798 222382,274487 221671,275435 220087,276611 219185,277908 217369,278684 215925,280032 215658,280323 214912,281240 213904,283375 212744,283131 211778,282448 210595,282412 209126,282955 206762,281571 205199,281404 204846,281227 204616,280905 203737,279140 205107,277240 205420,276097 202107,272730 199974,271672 198416,271448 195490,274118 194338,274422 191991,274000 189240,274060 185949,271833 183572,271642 180947,270724 178566,270771 176648,271224 174797,270592 173325,271155 171744,271247 170949,272041 170447,273542 171202,275786 169610,280701 168853,281615 167705,281537 167304,280866 167327,278888 166174,276809 166142,275234 163481,274476 162475,273846 159709,269496 159685,269100 161465,265590 160612,261735 160893,259794 161321,259136 164648,256981 164978,256276 164506,255192 164556,253620 162985,251864 162894,251104 164064,249029 164559,247129 166688,245363 167553,244033 167777,242070 167274,239766 168826,238018 169001,237661 168744,236910 167698,236338 166918,236368 165076,237794 163979,237332 163667,237087 163508,236723 164452,233784 163797,228262 163370,227152 159531,222631 158600,220459 155839,219071 153342,215504 153512,214743 153874,214581 155832,214510 156546,214169 157296,212810 160714,209489 163022,208940 163777,208021 163982,206057 163245,205137 161499,204255 161911,203143 166162,200962 167729,199174 170047,198648 172013,196729 173823,197319 175099,195381 179546,193646 180677,192027 180883,190494 181336,189856 182866,189882 183999,189525 184325,189308 184559,188987 185499,187244 185291,184569 188067,183259 187801,181782 188731,179609 189673,178878 190835,178680 192118,177229 194014,176655 194139,175137 196133,173881 196908,174064 198641,176130 199786,176111 203661,178062 207962,177885 208435,178522 210597,179537 212455,181578 212898,183042 213665,183028 215485,182285 217018,182702 219717,182067 221205,182537 221510,182325 221787,180793 223930,179869 224183,178341 225398,177334 227005,174605 228720,172949 228909,172604 228555,171488 228641,171100 228832,170750 229745,169980 230120,169847 231248,170216 231994,169991 232914,168243 233944,167656 241115,167681 242178,166571 244004,165888 245180,164916 246098,163630 247696,162477 248462,162384 249130,162801 249888,162807 251679,161267 251943,160973 252697,159149 252958,157600 253741,156719 254276,155259 255770,154016 255898,153643 255900,152487 254883,151943 255045,151642 256206,151580 257556,152400 258588,154398 260642,152767 260878,151612 260926,151219 263169,149060 264714,149163 266024,150024 266758,149939 266808,148004 269172,144917 269358,144570 269506,143798 268744,142459 268503,140500 268313,140156 267200,140363 266973,140059 266813,137721 266833,137327 267193,136637 269747,134979 270681,133714 270790,133339 269526,132393 268575,131683 267013,131563 266687,131335 265843,130519 264242,127814 263785,125886 264258,123168 264838,121281 265721,119978 266753,119426 267421,118447 267740,118209 269128,117458 269406,117175 269874,116535 269963,116148 269272,113880 269315,113485 269948,110377 271039,109279 271835,107096 271462,105585 271766,104860 271468,104127 272151,104531 273636,106382 274016,106498 275014,106015 277524,107200 278844,108667 280312,109259 282091,110841 285818,113108 289611,116480 298567,119780 301208,119140 303919,119610 305101,119671 307996,121619 309373,123508 310753,124168 311238,125228 312089,126037 313719,130446 314967,138590 314803,140135 315647,142331 317845,144543 311092,145277 307200,146068 306072,146466 305257,147312 305068,149269 305298,153659 304397,155396 305384,157020 304942,160152 306328,167210 306329,170404 307195,171116 309527,171489 310760,172497 310963,172837 311127,173613 310831,174330 310198,174810 309823,174943 308268,175132 307752,176188 307498,176492 307124,176603 306514,176122 305342,175920 304229,176332 303496,176033 302312,176126 301317,176776 301086,178686 300322,178812 299150,179845 298369,179857 295662,177043 295356,176793 294970,176722 294618,176895 293836,177784 291542,178284 290077,179604 289625,181112 288894,182046 288747,182413 288736,183194 290131,183877 290646,184464 290461,185992 292137,187541 293885,193538 292158,194430 290570,194490 289719,195293 288966,195541 288497,196168 288616,196951 288325,197188 287164,196955 286255,195670 285943,195455 285560,195506 284103,196102 283266,197398 281183,198457 280864,199965 280642,200285 280290,200372 280017,200122 279948,199740 280068,198564 279983,198175 279655,197457 279371,197180 277935,196532 276800,194902 276136,194690 275749,196198 274891,197527 275051,200280 273272,201049 272446,203650 271764,204050 271347,205131 270569,205244 268736,205727 265959,204798 265638,207030 264344,207844 263708,209647 263180,210232 261315,210595 259801,213393 258842,214078 257656,214162 255784,214830 254216,214837 253148,215364 252754,215415 251610,215090 250488,215429 248519,215251 248156,215410 247919,215728 247280,217185 246932,218736 246900,219132 247389,221035 246713,225762 246797,228142 246562,228899 246374,229250 246160,229585 243692,232085 241767,232573 239791,232547 238457,233392 237760,233106 236806,231363 236465,231401 235041,235948 234999,241090 233732,244438 230837,248187 230928,248572 231606,248940 233949,248661 234203,248967 234044,249733 234044,249733 232666,250533 228798,251473 " />
    <path
       d="m 254958,95356 -1440,-496 -1027,-2112 -1116,-372 139,-731 1237,-895 -233,-730 264,-286 3305,-954 1164,980 1118,132 479,1024 -1736,1462 -1113,-80 -274,269 -46,381 246,728 -1090,1034 123,646 z"
       id="97302 CAYENNE"
       inkscape:connector-curvature="0" />
    <polygon
       id="97303 IRACOUBA"
       points="129259,91039 129105,90699 130367,88706 131237,85684 131163,84919 130396,84040 130448,82857 130370,82470 130053,82237 127297,81950 126936,81789 126657,81507 126321,80373 125370,79139 124998,76802 124380,76320 123612,76138 121724,77465 120258,77015 120331,76632 121014,76269 121006,74722 121544,73244 121925,73357 122717,72484 122684,70921 123126,69399 123088,69004 122578,67955 121792,67874 119974,66506 120848,63512 120824,63116 119771,61942 119687,61554 119914,60388 120131,60056 121408,59136 121620,58799 122260,57343 122565,55784 122542,55391 120449,53047 120025,51938 120012,51541 120351,48779 120936,46892 120941,46495 120142,41861 120194,41469 120606,40795 121297,36934 122857,35169 122682,33229 122896,32476 124279,31751 126251,31624 129595,32758 131111,32309 131301,31961 131031,30847 131356,27402 130047,24579 129038,24012 127460,22286 127209,20416 128309,20055 134631,20654 139171,22085 142294,22647 144113,23402 144508,23434 148443,23091 149500,23622 151177,25139 150662,24084 149467,23049 148390,22551 146811,22413 146190,21983 146566,21363 148465,20832 150183,22275 160383,25348 161474,27810 164845,32149 168692,34159 169873,35187 171435,35440 172609,37000 172369,38157 171520,39483 172405,41139 171155,42633 170143,48070 168731,52191 169448,55693 170385,57854 170132,59005 171783,61090 171136,61464 168813,61004 167973,60202 167947,59445 166983,56858 165892,55207 164466,54512 163310,54393 162953,56322 163092,61030 162658,62126 164143,63955 164291,64323 164319,64719 163914,66646 162663,68622 162402,68921 159799,70674 158579,72236 158296,74183 157737,75225 155855,75765 152839,74794 151263,74670 151027,74989 151332,76912 150517,77756 149820,80390 150140,81504 149716,82587 146109,85569 145338,85445 144078,84522 142932,84808 141703,86349 140694,88900 139846,89729 139282,91611 138350,92182 138350,92182 137045,91301 133375,89865 " />
    <polygon
       id="97304 KOUROU"
       points="201006,135775 200106,135038 200046,133876 198989,132194 197597,131539 197423,131181 197386,130389 197968,128916 197901,128527 197681,128196 196005,127139 195213,126249 195073,124753 193649,125182 193258,125156 191750,124650 191432,124442 191374,124080 192141,123239 190917,120781 190916,119187 191374,117698 189896,116445 189298,114215 189829,112734 190378,112155 190082,111895 191016,109045 193257,108343 193759,107756 193690,107407 193301,107316 190985,107125 190314,105701 190322,105304 191270,100218 191429,99856 192803,97428 193434,95561 194920,95122 195199,94545 193159,92662 192714,92001 192544,91241 193191,89891 191395,89192 190054,87719 186343,85463 186135,85124 186357,84807 187133,84639 188089,83918 188447,83208 188228,82073 187213,81481 186992,80743 185715,79873 184669,79937 184279,78446 182476,76903 181749,76945 181353,75079 183066,72912 183027,70582 183395,69902 184737,69054 187031,66872 188589,66687 190631,65581 190880,65273 191594,63003 191730,61032 192501,60130 193022,58643 196780,54561 198357,53363 198191,51827 198440,51521 199902,50932 200268,50226 200543,48288 199872,47316 202710,49418 204440,52037 209673,56862 215912,61079 216198,61354 219086,64610 220360,65517 219959,66572 220143,66914 222551,68295 226141,71405 227318,71566 222852,77102 223364,78546 225708,78688 226368,79581 225082,82867 225098,84435 224968,84808 224137,86600 223060,87747 222285,87903 222108,88256 222611,89748 222865,92458 222412,94738 221366,95909 220929,97011 221148,98163 222069,99849 220150,101138 219605,103428 219945,104941 219105,105691 219569,110007 219358,111923 221504,114184 220742,114347 220706,115129 219988,116069 218479,116463 218611,117243 217941,118218 217639,118473 216111,118729 215122,121278 212573,123762 212348,124088 211891,125933 211167,126252 210218,127473 209074,127358 208187,128148 207382,129484 207731,131009 206407,133420 205000,134057 203527,137247 202350,137299 202166,137650 202166,137650 201798,137805 201149,137361 " />
    <polygon
       id="97305 MACOURIA"
       points="243757,92855 242807,93493 242456,95038 241863,95518 237993,94830 237814,94500 238446,92655 238229,91906 238382,91554 240000,89812 240198,89477 240146,89119 238280,87715 236024,88981 234626,88355 233159,88886 231759,90807 230660,91219 229906,92602 228226,94271 227843,94374 227475,94232 226994,93657 222865,92458 222611,89748 222108,88256 222285,87903 223060,87747 224137,86600 224968,84808 225098,84435 225082,82867 226368,79581 225708,78688 223364,78546 222852,77102 227318,71566 228007,71518 228673,72403 228610,73148 228885,73406 230053,73466 232265,75150 239250,82220 243705,85516 244024,86244 245270,87231 246809,89549 248479,91264 250141,92334 251514,91645 251375,92376 250493,93130 248349,94021 248349,94021 245996,94349 244505,93078 " />
    <polygon
       id="97306 MANA"
       points="85661,161088 85686,160293 84660,156889 84676,154513 86361,151367 87939,146917 89812,144393 90567,140503 90734,140142 92121,137736 93001,136933 93397,135401 94487,133753 95180,131100 95818,130661 95634,129174 96632,126175 96569,124208 95816,122381 94156,119720 95824,115803 95929,115423 95573,114720 95376,112766 94349,111579 94275,111191 94534,110449 95432,109682 95836,108576 95505,104802 95756,104059 95275,102186 94168,100603 93001,99567 92800,99236 92738,98464 93427,97084 92021,93175 92531,89838 91250,88955 92055,87600 91042,87055 90745,86350 92098,85657 93930,84215 94031,83851 93600,83216 92130,82646 91692,82041 91993,81344 93406,80665 93654,80384 93616,80022 92834,79140 92426,78025 92192,77712 91846,77539 91455,77535 90298,77777 90009,77547 90166,76801 89970,76471 88937,75933 88836,75557 88884,75165 89514,73717 89499,73322 89034,72700 86877,71819 85691,69371 85681,67443 84991,67095 84198,67137 82352,68599 80944,69291 80047,68554 79283,68640 79118,69415 78316,70260 78556,71424 77991,72348 76041,71004 73726,70672 73507,69547 72462,69081 71291,68045 69219,69050 68844,68994 68270,67659 65807,69541 65515,72693 63666,76651 62729,75463 63605,73289 62267,71377 62053,70208 62904,67182 62742,65611 62106,64171 62127,63776 62252,63400 62570,63165 63708,63057 64561,61727 64952,59018 67642,57422 68235,56897 69010,55526 69262,53972 70465,52971 71164,52597 74576,51605 75226,50635 76765,50639 78058,49294 79547,48761 81462,48740 81859,48726 82027,48364 82381,46819 83822,43585 83746,42022 84714,40778 85068,38882 83569,38651 82668,37378 79307,35255 78929,33753 78106,32903 76787,30445 75506,29553 75133,28433 77205,26696 78174,25024 79201,24421 80685,24165 80006,21942 80558,20112 79537,19539 79291,18857 77715,18692 76789,18000 76458,18127 76231,18834 75111,17902 72836,18006 72311,17455 72010,16317 71118,15545 71236,14067 70931,13841 69231,14753 67718,14291 66742,11432 68736,11458 70322,10289 71052,10159 71428,11664 71772,11793 72545,10968 72881,11112 73533,12071 75019,12531 76547,14354 78481,14691 79969,15971 80720,16084 81194,15485 82732,11390 84551,10666 86994,7032 86976,5865 88319,2108 92105,3298 97624,6472 99162,6888 104487,10368 109442,12909 113079,15343 115015,15608 121196,18336 127209,20416 127460,22286 129038,24012 130047,24579 131356,27402 131031,30847 131301,31961 131111,32309 129595,32758 126251,31624 124279,31751 122896,32476 122682,33229 122857,35169 121297,36934 120606,40795 120194,41469 120142,41861 120941,46495 120936,46892 120351,48779 120012,51541 120025,51938 120449,53047 122542,55391 122565,55784 122260,57343 121620,58799 121408,59136 120131,60056 119914,60388 119687,61554 119771,61942 120824,63116 120848,63512 119974,66506 121792,67874 122578,67955 123088,69004 123126,69399 122684,70921 122717,72484 121925,73357 121544,73244 121006,74722 121014,76269 120331,76632 120258,77015 121724,77465 123612,76138 124380,76320 124998,76802 125370,79139 126321,80373 126657,81507 126936,81789 127297,81950 130053,82237 130370,82470 130448,82857 130396,84040 131163,84919 131237,85684 130367,88706 129105,90699 129259,91039 133375,89865 137045,91301 138350,92182 140418,93346 140557,94116 139651,94819 139071,95854 139469,96948 139261,97693 138212,98890 136830,99628 135914,101823 134147,102661 133035,104256 134550,105921 135154,107781 132880,109270 132514,110782 131167,111599 131090,112346 131787,114185 130980,116327 132210,117322 133400,117368 133661,117662 133653,118062 133058,120786 133022,121184 133150,121969 133542,122660 134925,124090 136360,124488 136715,125605 140534,129068 141269,129338 142854,129218 143212,129370 143490,129651 144313,131468 145283,132667 145137,134246 144005,135871 144266,137412 143801,139755 143907,141734 142355,144520 141021,145185 140382,149532 140680,151102 139810,153745 137762,156655 135138,159613 131679,160499 129018,159786 125617,160769 123419,159862 120473,160828 118641,160123 117537,160420 117205,160333 116917,159232 115933,158037 116332,154962 115707,153573 115804,153192 117229,152649 117621,151961 117137,150469 116309,149711 115621,148841 114944,149775 113477,150289 110531,153504 108417,156369 106521,156866 104600,158255 101144,159122 98766,159062 96143,158220 94224,158715 93184,159282 92450,160219 91938,161286 92085,162067 92085,162067 88330,162416 86177,161692 " />
    <polygon
       id="97307 MATOURY"
       points="255438,108452 253556,111447 252503,111985 252112,111930 251817,111667 250676,110063 248581,109217 247606,107250 247425,104921 247884,103031 247781,101862 246871,101259 246448,100185 244955,99812 244534,98719 244752,98433 246043,99250 246766,99016 247088,97946 246517,96523 248349,94021 250493,93130 251375,92376 252491,92748 253518,94860 254958,95356 255629,96635 255563,97750 256476,98469 257240,99812 258272,100340 258272,100340 257330,102074 256773,105168 " />
    <polygon
       id="97308 SAINT-GEORGES"
       points="282589,242386 281180,241673 278130,242364 275792,242535 275422,242681 274213,243707 272384,244453 272058,245173 272043,245571 272300,246727 272068,247050 271706,247215 268718,248264 265195,248623 262705,249829 262382,250061 260497,253544 257821,256484 255545,257073 254257,258001 252368,258622 250673,259653 250283,259728 249916,259576 249035,258265 248658,258141 246439,258977 245660,258837 245008,258387 244726,258107 243909,256764 243815,256377 243642,252802 243485,252436 243169,252195 242033,251866 239800,252665 239403,252639 238734,252225 237843,250906 234044,249733 234203,248967 233949,248661 231606,248940 230928,248572 230837,248187 233732,244438 234999,241090 235041,235948 236465,231401 236806,231363 237760,233106 238457,233392 239791,232547 241767,232573 243692,232085 246160,229585 246374,229250 246562,228899 246797,228142 246713,225762 247389,221035 246900,219132 246932,218736 247280,217185 247919,215728 248156,215410 248519,215251 250488,215429 251610,215090 252754,215415 253148,215364 254216,214837 255784,214830 257656,214162 258842,214078 259801,213393 261315,210595 263180,210232 263708,209647 264344,207844 265638,207030 265959,204798 268736,205727 270569,205244 271347,205131 271764,204050 272446,203650 273272,201049 275051,200280 274891,197527 275749,196198 276136,194690 276800,194902 277935,196532 279371,197180 279655,197457 279983,198175 280068,198564 279948,199740 280017,200122 280290,200372 280642,200285 280864,199965 281183,198457 283266,197398 284103,196102 285560,195506 285943,195455 286255,195670 287164,196955 288325,197188 288616,196951 288497,196168 288966,195541 289719,195293 290570,194490 292158,194430 293885,193538 295728,194163 296346,193679 297061,194008 297817,193760 298214,193800 298596,193919 298963,194077 300285,194966 301463,195164 304732,196552 305498,196358 306535,195210 308909,194904 310872,195184 311264,195125 311628,194961 311963,194745 313526,193534 312906,192208 312880,191013 312896,190616 313033,190247 313491,189595 314189,189240 316166,189367 316921,189136 317736,188276 320743,186348 322936,185397 323230,185129 323614,184434 323713,184048 323689,183257 323209,182647 321713,182161 321593,181794 322454,180480 322364,179324 323704,178479 329672,170455 330511,171758 332083,171754 331193,172545 330371,174349 330025,179100 328849,185345 327953,187969 325924,189852 317816,193973 314783,196520 314501,196800 314098,197482 313919,202604 312233,206201 312001,206524 309608,208586 309152,209681 305816,212469 303916,215468 302818,215913 302296,216511 300402,216249 300360,216644 301302,217296 301234,217688 300174,218175 298638,218362 298131,219439 298870,222087 298342,224372 296831,224825 294877,224856 292827,226690 292068,228948 291254,230306 291151,230690 291067,232271 290623,233368 290838,235282 287661,238822 284868,243619 284868,243619 283831,243046 283384,242397 " />
    <polygon
       id="97309 REMIRE-MONTJOLY"
       points="255563,97750 255629,96635 254958,95356 254835,94710 255925,93676 255679,92948 255725,92567 255999,92298 257112,92378 258848,90916 261095,93089 260790,93799 260957,94546 262455,95794 263724,97726 261598,100028 260847,100259 258932,99916 258272,100340 258272,100340 257240,99812 256476,98469 " />
    <polygon
       id="97310 ROURA"
       points="271835,107096 271039,109279 269948,110377 269315,113485 269272,113880 269963,116148 269874,116535 269406,117175 269128,117458 267740,118209 267421,118447 266753,119426 265721,119978 264838,121281 264258,123168 263785,125886 264242,127814 265843,130519 266687,131335 267013,131563 268575,131683 269526,132393 270790,133339 270681,133714 269747,134979 267193,136637 266833,137327 266813,137721 266973,140059 267200,140363 268313,140156 268503,140500 268744,142459 269506,143798 269358,144570 269172,144917 266808,148004 266758,149939 266024,150024 264714,149163 263169,149060 260926,151219 260878,151612 260642,152767 258588,154398 257556,152400 256206,151580 255045,151642 254883,151943 255900,152487 255898,153643 255770,154016 254276,155259 253741,156719 252958,157600 252697,159149 251943,160973 251679,161267 249888,162807 249130,162801 248462,162384 247696,162477 246098,163630 245180,164916 244004,165888 242178,166571 241115,167681 233944,167656 232914,168243 231994,169991 231248,170216 230120,169847 229745,169980 228832,170750 228641,171100 228555,171488 228909,172604 228720,172949 227005,174605 225398,177334 224183,178341 223930,179869 221787,180793 221510,182325 221205,182537 219717,182067 217018,182702 215485,182285 213665,183028 212898,183042 212455,181578 210597,179537 208435,178522 207962,177885 203661,178062 199786,176111 198641,176130 196908,174064 196133,173881 196059,173491 197967,173489 198453,172931 198054,170617 198509,169093 198131,168001 198419,165653 198102,164105 197036,162981 197823,161714 198281,159785 198283,159388 197868,158281 196171,156604 195077,154947 194672,151403 194008,150444 193862,150089 193912,149704 195104,146754 195327,146428 195972,145970 197443,145401 197966,143964 199475,144085 199991,142637 201244,141755 200965,140624 202284,139227 202166,137650 202350,137299 203527,137247 205000,134057 206407,133420 207731,131009 207382,129484 208187,128148 209074,127358 210218,127473 211167,126252 211891,125933 212348,124088 212573,123762 215122,121278 216111,118729 217639,118473 217941,118218 218611,117243 218479,116463 219988,116069 220706,115129 220742,114347 221504,114184 221652,114554 223134,115116 225080,114723 227177,115832 228341,116040 229309,117283 231983,119010 234305,119564 235258,120262 237549,120760 237935,120761 238264,120560 239067,119183 239583,118101 239719,117728 240175,115396 242319,111660 242108,110099 242900,107881 243216,107992 243586,109106 245541,109301 247179,110374 248528,109612 248581,109217 250676,110063 251817,111667 252112,111930 252503,111985 253556,111447 255438,108452 256773,105168 257330,102074 258272,100340 258932,99916 260847,100259 261598,100028 263724,97726 264400,98693 267034,99306 268855,101810 269222,102911 270338,103039 271468,104127 271468,104127 271766,104860 271462,105585 " />
    <polygon
       id="97311 SAINT-LAURENT-DU-MARONI"
       points="82726,157790 80124,156802 79281,155957 78616,154513 78310,150166 75107,144672 74359,144584 73038,145469 72657,145584 72291,145428 72006,145150 70592,142318 70637,139949 69584,134884 69564,134486 69636,133694 71038,131295 71463,128140 71366,127375 70590,126468 70051,125404 70012,124221 72793,119033 73148,117895 72968,117139 71591,116392 70403,116394 67380,118241 66245,118597 65462,118488 63152,116975 61216,116629 58211,114696 56298,114284 56145,112353 55931,112019 55161,111910 53673,112447 53277,112417 51025,111640 50306,111305 49980,111077 48322,109370 48202,108991 48421,108238 49823,106858 49848,105671 50187,104978 50950,104835 53088,106547 54271,106578 54809,106087 53321,104243 52570,102443 51450,102160 50738,101869 49222,102253 47018,101522 46203,100212 46293,98666 46152,98300 45175,97097 45111,95927 44314,94142 43297,92959 40672,93158 39944,91383 38464,90118 38403,88583 37135,87889 38158,85358 38373,85031 39852,83758 40760,82485 42036,81585 42512,80514 44363,79840 44694,77972 43806,75776 43935,74219 45542,71962 47867,69833 48078,69498 48777,68081 48756,67687 48462,65766 47453,65160 46790,64177 44155,62498 44344,60944 43835,58650 42679,58864 40916,57971 40609,57721 39640,56001 39849,54080 39041,51969 41580,50860 43351,49300 44911,49067 46447,47291 47900,46683 49078,44618 52149,42125 52384,41805 53678,39803 54121,38284 55154,36588 58010,33877 61322,29414 63243,28025 64155,26268 66414,24702 67262,22483 67948,19380 67652,17448 67718,14291 69231,14753 70931,13841 71236,14067 71118,15545 72010,16317 72311,17455 72836,18006 75111,17902 76231,18834 76458,18127 76789,18000 77715,18692 79291,18857 79537,19539 80558,20112 80006,21942 80685,24165 79201,24421 78174,25024 77205,26696 75133,28433 75506,29553 76787,30445 78106,32903 78929,33753 79307,35255 82668,37378 83569,38651 85068,38882 84714,40778 83746,42022 83822,43585 82381,46819 82027,48364 81859,48726 81462,48740 79547,48761 78058,49294 76765,50639 75226,50635 74576,51605 71164,52597 70465,52971 69262,53972 69010,55526 68235,56897 67642,57422 64952,59018 64561,61727 63708,63057 62570,63165 62252,63400 62127,63776 62106,64171 62742,65611 62904,67182 62053,70208 62267,71377 63605,73289 62729,75463 63666,76651 65515,72693 65807,69541 68270,67659 68844,68994 69219,69050 71291,68045 72462,69081 73507,69547 73726,70672 76041,71004 77991,72348 78556,71424 78316,70260 79118,69415 79283,68640 80047,68554 80944,69291 82352,68599 84198,67137 84991,67095 85681,67443 85691,69371 86877,71819 89034,72700 89499,73322 89514,73717 88884,75165 88836,75557 88937,75933 89970,76471 90166,76801 90009,77547 90298,77777 91455,77535 91846,77539 92192,77712 92426,78025 92834,79140 93616,80022 93654,80384 93406,80665 91993,81344 91692,82041 92130,82646 93600,83216 94031,83851 93930,84215 92098,85657 90745,86350 91042,87055 92055,87600 91250,88955 92531,89838 92021,93175 93427,97084 92738,98464 92800,99236 93001,99567 94168,100603 95275,102186 95756,104059 95505,104802 95836,108576 95432,109682 94534,110449 94275,111191 94349,111579 95376,112766 95573,114720 95929,115423 95824,115803 94156,119720 95816,122381 96569,124208 96632,126175 95634,129174 95818,130661 95180,131100 94487,133753 93397,135401 93001,136933 92121,137736 90734,140142 90567,140503 89812,144393 87939,146917 86361,151367 84676,154513 84660,156889 85686,160293 85661,161088 86177,161692 86177,161692 84985,161760 84273,161409 " />
    <polygon
       id="97312 SINNAMARY"
       points="184228,81516 181524,80831 179987,81240 176016,81186 173070,82371 172783,83096 173071,84231 172868,84564 172129,84729 170599,84336 170239,84183 169989,83882 169622,82754 168821,81865 168517,81610 167368,81371 167098,81110 166642,80038 165118,78761 164359,76497 164140,76174 163792,76004 162608,76094 162217,76177 161603,76646 160831,78904 161106,80055 161004,80433 160539,81076 160190,81261 157441,81502 156319,81909 155586,81701 154876,80745 153862,80137 151904,79950 151921,79173 150517,77756 151332,76912 151027,74989 151263,74670 152839,74794 155855,75765 157737,75225 158296,74183 158579,72236 159799,70674 162402,68921 162663,68622 163914,66646 164319,64719 164291,64323 164143,63955 162658,62126 163092,61030 162953,56322 163310,54393 164466,54512 165892,55207 166983,56858 167947,59445 167973,60202 168813,61004 171136,61464 171783,61090 170132,59005 170385,57854 169448,55693 168731,52191 170143,48070 171155,42633 172405,41139 171520,39483 172369,38157 172609,37000 171435,35440 169873,35187 168692,34159 164845,32149 161474,27810 160383,25348 164455,26891 166210,28492 171089,31225 177308,32623 179382,35008 179729,35004 179828,34650 179060,33260 179048,32877 179274,32577 179647,32478 182393,32833 183516,33219 184656,33066 186747,34166 187486,35520 192896,39487 193489,40524 195208,41513 195916,42929 197445,44725 197810,46247 198378,46808 199872,47316 200543,48288 200268,50226 199902,50932 198440,51521 198191,51827 198357,53363 196780,54561 193022,58643 192501,60130 191730,61032 191594,63003 190880,65273 190631,65581 188589,66687 187031,66872 184737,69054 183395,69902 183027,70582 183066,72912 181353,75079 181749,76945 182476,76903 184279,78446 184669,79937 185715,79873 186992,80743 187213,81481 188228,82073 188447,83208 188089,83918 188089,83918 187847,83174 185711,82108 " />
    <polygon
       id="97313 MONTSINÉRY-TONNEGRANDE"
       points="245541,109301 243586,109106 243216,107992 242900,107881 242108,110099 242319,111660 240175,115396 239719,117728 239583,118101 239067,119183 238264,120560 237935,120761 237549,120760 235258,120262 234305,119564 231983,119010 229309,117283 228341,116040 227177,115832 225080,114723 223134,115116 221652,114554 221504,114184 219358,111923 219569,110007 219105,105691 219945,104941 219605,103428 220150,101138 222069,99849 221148,98163 220929,97011 221366,95909 222412,94738 222865,92458 226994,93657 227475,94232 227843,94374 228226,94271 229906,92602 230660,91219 231759,90807 233159,88886 234626,88355 236024,88981 238280,87715 240146,89119 240198,89477 240000,89812 238382,91554 238229,91906 238446,92655 237814,94500 237993,94830 241863,95518 242456,95038 242807,93493 243757,92855 244505,93078 245996,94349 248349,94021 246517,96523 247088,97946 246766,99016 246043,99250 244752,98433 244534,98719 244955,99812 246448,100185 246871,101259 247781,101862 247884,103031 247425,104921 247606,107250 248581,109217 248581,109217 248528,109612 247179,110374 " />
    <polygon
       id="97314 OUANARY"
       points="322454,180480 321593,181794 321713,182161 323209,182647 323689,183257 323713,184048 323614,184434 323230,185129 322936,185397 320743,186348 317736,188276 316921,189136 316166,189367 314189,189240 313491,189595 313033,190247 312896,190616 312880,191013 312906,192208 313526,193534 311963,194745 311628,194961 311264,195125 310872,195184 308909,194904 306535,195210 305498,196358 304732,196552 301463,195164 300285,194966 298963,194077 298596,193919 298214,193800 297817,193760 297061,194008 296346,193679 295728,194163 293885,193538 292137,187541 290461,185992 290646,184464 290131,183877 288736,183194 288747,182413 288894,182046 289625,181112 290077,179604 291542,178284 293836,177784 294618,176895 294970,176722 295356,176793 295662,177043 298369,179857 299150,179845 300322,178812 301086,178686 301317,176776 302312,176126 303496,176033 304229,176332 305342,175920 306514,176122 307124,176603 307498,176492 307752,176188 308268,175132 309823,174943 310198,174810 310831,174330 311127,173613 310963,172837 310760,172497 309527,171489 307195,171116 306329,170404 306328,167210 304942,160152 305384,157020 304397,155396 305298,153659 305068,149269 305257,147312 306072,146466 307200,146068 311092,145277 317845,144543 317178,147083 318959,149140 322006,150966 323396,150316 323971,150780 323705,151495 322418,152373 321080,154785 321025,155177 321247,157140 321352,157522 322455,160486 325253,164289 325729,165781 327502,167292 327761,168039 327520,168784 328564,169324 329672,170455 329672,170455 323704,178479 322364,179324 " />
    <polygon
       id="97352 SAÜL"
       points="163075,277304 162374,276343 160591,275500 159694,274716 158705,272575 158409,272311 156632,271427 152498,270082 151892,269578 151688,269237 151348,267698 152310,262636 152426,261051 152316,260670 152054,260371 151704,260183 148367,258943 147289,259422 146228,258966 145248,259628 144461,259683 144249,259347 143496,259236 142736,258337 141966,258486 140205,257605 138653,257485 137208,256904 134841,256964 133395,256388 131625,257243 131235,257304 130993,256994 130913,255825 131878,254609 132232,252278 134239,248955 134385,246996 134123,246252 134436,246009 135055,243367 134705,240673 135759,236893 134290,233726 133132,233503 132744,233412 132360,232722 132009,228378 132034,227981 133004,226252 133066,225087 129358,219955 126078,218589 121963,214271 121115,210386 121043,206006 119916,204959 119527,203423 118299,202431 116754,200124 116384,199976 115986,199995 114424,200309 112565,201003 112178,200909 109074,198431 108374,198051 106864,197549 104879,197554 104559,197318 104394,196955 103871,194632 102776,193534 99213,193730 97234,195051 96612,196048 95565,195744 95649,194652 94840,193815 95163,189525 94645,188456 94591,188064 94694,187692 94969,187407 96968,186098 97203,185783 97432,185021 97454,184624 97096,183963 95246,182477 93903,181794 94755,180525 95110,178972 94458,177546 94726,173969 94476,172391 93925,171326 91891,164362 92085,162067 91938,161286 92450,160219 93184,159282 94224,158715 96143,158220 98766,159062 101144,159122 104600,158255 106521,156866 108417,156369 110531,153504 113477,150289 114944,149775 115621,148841 116309,149711 117137,150469 117621,151961 117229,152649 115804,153192 115707,153573 116332,154962 115933,158037 116917,159232 117205,160333 117537,160420 118641,160123 120473,160828 123419,159862 125617,160769 129018,159786 131679,160499 135138,159613 137762,156655 139810,153745 140653,155547 140907,157064 141592,157467 143508,157704 145035,160020 144731,161137 143575,162196 144431,164366 144088,165468 144383,165724 144772,165804 146735,165799 148111,167201 150303,168128 150575,168415 150857,169152 151049,171520 151248,171858 153255,173047 154227,176059 155406,177648 154985,180353 152825,182060 152564,182360 152155,183041 151975,183813 151947,184211 152144,186188 152361,186954 152663,187690 153354,188662 153643,188936 155362,189911 155555,190257 155834,191414 156715,192730 156837,194300 158158,196749 159710,201686 160380,203131 161499,204255 163245,205137 163982,206057 163777,208021 163022,208940 160714,209489 157296,212810 156546,214169 155832,214510 153874,214581 153512,214743 153342,215504 155839,219071 158600,220459 159531,222631 163370,227152 163797,228262 164452,233784 163508,236723 163667,237087 163979,237332 165076,237794 166918,236368 167698,236338 168744,236910 169001,237661 168826,238018 167274,239766 167777,242070 167553,244033 166688,245363 164559,247129 164064,249029 162894,251104 162985,251864 164556,253620 164506,255192 164978,256276 164648,256981 161321,259136 160893,259794 160612,261735 161465,265590 159685,269100 159709,269496 162475,273846 163481,274476 166142,275234 166174,276809 167327,278888 167327,278888 164586,278481 163813,277593 " />
    <polygon
       id="97353 MARIPASOULA"
       points="141578,377663 141109,376579 140820,376306 140456,376156 138924,376541 138573,376709 138379,377045 138309,378619 137316,379861 137003,380107 135232,380983 134088,381242 132925,382826 132575,383008 130612,383195 130276,383401 129107,384490 128261,385837 126953,386744 125778,386770 124364,386051 122011,386321 120460,386117 119186,386989 117742,386591 117494,386899 115991,385651 114885,385276 114103,385182 113391,385508 111150,383953 109649,384340 105770,383938 105357,383326 105490,382169 104068,381502 101877,382149 100809,380579 99707,380863 97412,380444 96905,381045 95791,380762 95227,379773 95428,379431 96564,379134 96492,377985 97719,377010 97790,376264 96600,375223 95169,375031 95989,374286 95942,373745 94771,373797 93263,373351 91445,374076 90956,374690 89817,374951 88522,375847 87831,377225 85677,378145 85939,378818 87462,379134 87811,379832 87712,380215 85508,380968 84796,381277 83639,381123 82831,380357 82194,380824 80252,380832 79866,381508 79540,384246 77341,385767 76732,385407 76452,384301 74559,383928 73862,386060 74230,388382 73421,390553 71099,390659 70033,391828 68123,391624 66814,392414 65973,393761 65044,394502 61573,393884 60216,393112 59859,393257 57964,395781 57320,399257 55627,400893 55454,402043 55172,402222 53053,401178 51230,401875 49816,401266 49032,400434 48263,400401 47644,399492 47691,398704 46874,397864 46736,397493 46360,395175 43828,396964 41716,398002 39014,397618 36905,398584 34952,398279 31960,397249 29636,397666 29242,397634 28929,397395 28889,395879 27403,395488 26653,394623 26791,393463 27353,392423 27105,391722 26794,391478 26403,391536 24961,392181 23860,392041 23464,392038 22576,392825 20617,392891 20358,392602 20496,391440 19875,391011 19089,391052 17363,391976 14373,391006 13518,389337 12069,388724 11689,387240 11151,386676 9199,386624 8831,386481 6809,385301 6517,385033 6435,384661 6785,384479 9442,383797 9613,383457 9219,382801 7783,382164 7542,381852 7285,381106 7288,380713 7571,379587 7096,378954 6819,378678 4900,378293 1849,378901 1160,378570 742,377917 0,377693 1080,376671 1243,375923 3454,375475 4976,375753 6404,376348 7425,376900 7638,377608 8367,377860 8974,377357 10552,377285 10205,374206 11013,371170 11576,370122 13026,368788 14229,366738 14568,366531 15361,366495 18105,366831 20331,366123 20648,365885 22786,363041 23839,362494 24184,360979 25273,360598 25455,359903 25886,358411 26661,358331 27172,357337 28069,356667 28766,354839 28700,352863 30375,351279 32091,346483 32042,344956 33195,343351 36093,340692 36291,340350 36492,339187 37112,338717 36975,337583 37869,334569 38458,334044 39602,333736 40085,332741 41002,331987 41203,331645 41979,331521 42387,330440 43060,330026 43878,328664 43992,327102 44886,325818 44370,322764 45862,322347 46178,322114 46592,321441 46732,321068 47046,319519 46075,318318 45714,317190 45690,316794 46500,314149 46171,312631 47601,311353 47771,310994 47701,309852 47981,309573 47696,308839 48013,308116 49111,307829 49229,307453 47562,306520 46891,304278 48104,303316 48283,302550 48291,302154 48207,301766 46915,298868 45842,297247 46329,296238 47760,295675 47249,294289 47250,293898 47810,292431 47260,290554 46427,289263 44770,290062 44023,289833 43760,289545 43737,289165 44426,288263 43790,287844 43607,287098 44918,286287 44685,285178 45789,282235 46457,281257 47941,280822 49167,278793 50129,278102 50534,276987 52163,274745 53527,273946 54348,272607 56212,271161 57240,271719 57637,271720 58816,271570 59178,271408 59474,271145 60002,270082 60220,269319 60274,268925 60130,267747 60566,265004 61355,263646 60834,261774 61848,261256 62147,260995 63401,259461 65074,258401 65308,258081 65941,256677 65271,255698 65182,254909 65586,253421 66501,252170 66494,248200 67325,245984 66502,244663 66930,242325 67610,240909 69016,239524 69491,237199 69428,236807 68654,235905 67085,232721 66800,232445 66067,232167 65303,232356 64203,233936 62240,233860 61896,233662 61760,233289 61871,232105 61543,231392 58499,229554 57909,227692 58687,225873 58691,225085 58154,224031 56973,222973 56247,220710 55290,219448 57555,216681 60556,215737 61991,216375 63131,218007 63453,218227 63841,218203 64145,217952 66167,214529 70526,211035 71641,210727 73427,211516 76787,210274 77125,210061 79207,207671 80958,206813 81312,204913 83953,202551 85121,202483 85807,202088 87289,202315 89025,201333 89979,200074 91395,199415 91798,198299 93723,196289 95298,196189 95983,196523 96612,196048 97234,195051 99213,193730 102776,193534 103871,194632 104394,196955 104559,197318 104879,197554 106864,197549 108374,198051 109074,198431 112178,200909 112565,201003 114424,200309 115986,199995 116384,199976 116754,200124 118299,202431 119527,203423 119916,204959 121043,206006 121115,210386 121963,214271 126078,218589 129358,219955 133066,225087 133004,226252 132034,227981 132009,228378 132360,232722 132744,233412 133132,233503 134290,233726 135759,236893 134705,240673 135055,243367 134436,246009 134123,246252 134385,246996 134239,248955 132232,252278 131878,254609 130913,255825 130993,256994 131235,257304 131625,257243 133395,256388 134841,256964 137208,256904 138653,257485 140205,257605 141966,258486 142736,258337 143496,259236 144249,259347 144461,259683 145248,259628 146228,258966 147289,259422 148367,258943 151704,260183 152054,260371 152316,260670 152426,261051 152310,262636 151348,267698 151688,269237 151892,269578 152498,270082 156632,271427 158409,272311 158705,272575 159694,274716 160591,275500 162374,276343 163075,277304 163813,277593 164586,278481 167327,278888 167304,280866 167705,281537 168853,281615 169610,280701 172011,282791 172639,285093 172244,287847 169019,293325 168694,297288 168789,299672 169272,301177 169115,302760 168874,303076 167698,303030 165881,303820 165591,304093 164464,306582 159123,309192 158602,310258 158074,312967 156047,314850 155651,315975 153939,318157 153805,318532 153753,319718 154620,321932 154602,323107 151239,325174 146833,330756 146685,331500 147816,333114 147662,334239 144952,334728 144365,335207 144224,337182 144733,339073 144563,339842 143641,341116 143659,342304 143691,342699 143840,343067 145032,344095 145059,344490 144911,344858 144333,345389 141677,346157 140731,347356 141874,349413 144026,350349 144159,352321 143890,353882 142998,354572 141993,355209 141448,356261 142725,357757 142970,360119 145785,361429 148454,364825 151522,365554 152059,366073 150339,367026 148907,370285 146193,372584 145656,375606 144946,375955 144522,376620 143084,377268 143084,377268 142893,376932 142341,377506 " />
    <polygon
       id="97356 CAMOPI"
       points="281709,248844 279811,250842 279180,253107 277564,254831 272482,264241 270830,266467 269983,268250 268871,269373 268292,271643 266217,274034 264070,277377 263792,277661 262700,278041 261819,276781 260668,276648 259071,278378 257356,279378 256038,282660 256355,285013 256104,285321 255338,285110 254283,285529 253103,285523 251980,288419 252480,289018 252410,289391 251248,289580 250898,289760 250689,290092 250673,290482 250871,290819 251789,291492 251315,292980 251437,293752 253082,295440 253251,296189 250361,301819 249371,303036 248372,307237 248206,307597 247090,309696 246189,310452 245916,312386 246584,313354 247691,313541 247569,313916 246083,315764 244910,315753 244669,315436 243817,316221 242737,316576 240214,321076 237156,327079 236030,332399 235327,333823 234288,335021 233030,337935 232036,339170 230820,342517 230554,342810 229000,342962 228679,343195 228049,344201 228047,344597 229122,345728 228833,347568 230402,348761 230909,350265 229822,352306 230047,353013 229710,353222 228577,352893 227302,354357 228313,356484 228138,357252 226764,358014 225062,359675 223234,362237 221269,362450 220907,362612 220646,362910 220575,363681 221379,364546 221496,364924 221330,365283 221025,365537 219098,365968 218769,366190 218005,367098 217782,368653 216663,370281 216696,371462 216056,373333 215056,373952 213498,374225 213119,374343 210915,375236 210569,375429 209983,375960 209575,377055 207349,377881 203575,380013 202784,379973 202443,380672 200002,381817 196213,382948 195985,383691 194494,384123 194459,385637 192739,386517 192208,388007 191077,389045 190800,390601 188802,393987 185698,393709 184682,395256 181202,395935 180142,396442 178716,395410 177356,395240 172505,393807 171615,393032 170366,391055 169412,390380 163584,390056 162143,390652 160979,390481 158388,391243 155328,391602 154403,392342 153626,392521 151884,391675 151097,391688 149188,393694 148415,393834 147025,393419 147648,392416 147747,390845 149112,390322 149574,389708 149739,387754 150833,387789 151190,387613 152849,386531 153029,386189 152969,385801 152735,385481 152390,385286 150029,384954 149703,384726 149124,383267 147066,381407 145141,380922 144205,380177 143533,379189 143084,377268 144522,376620 144946,375955 145656,375606 146193,372584 148907,370285 150339,367026 152059,366073 151522,365554 148454,364825 145785,361429 142970,360119 142725,357757 141448,356261 141993,355209 142998,354572 143890,353882 144159,352321 144026,350349 141874,349413 140731,347356 141677,346157 144333,345389 144911,344858 145059,344490 145032,344095 143840,343067 143691,342699 143659,342304 143641,341116 144563,339842 144733,339073 144224,337182 144365,335207 144952,334728 147662,334239 147816,333114 146685,331500 146833,330756 151239,325174 154602,323107 154620,321932 153753,319718 153805,318532 153939,318157 155651,315975 156047,314850 158074,312967 158602,310258 159123,309192 164464,306582 165591,304093 165881,303820 167698,303030 168874,303076 169115,302760 169272,301177 168789,299672 168694,297288 169019,293325 172244,287847 172639,285093 172011,282791 169610,280701 171202,275786 170447,273542 170949,272041 171744,271247 173325,271155 174797,270592 176648,271224 178566,270771 180947,270724 183572,271642 185949,271833 189240,274060 191991,274000 194338,274422 195490,274118 198416,271448 199974,271672 202107,272730 205420,276097 205107,277240 203737,279140 204616,280905 204846,281227 205199,281404 206762,281571 209126,282955 210595,282412 211778,282448 212744,283131 213904,283375 214912,281240 215658,280323 215925,280032 217369,278684 219185,277908 220087,276611 221671,275435 222382,274487 221989,273798 220878,273668 219325,271360 219166,270995 218540,268690 218677,267504 218858,267149 219544,266753 221918,266894 222306,266803 227286,265385 227647,265217 227925,264931 228371,263843 228308,258678 229293,255243 229007,254097 228251,253177 228224,251992 228798,251473 232666,250533 234044,249733 237843,250906 238734,252225 239403,252639 239800,252665 242033,251866 243169,252195 243485,252436 243642,252802 243815,256377 243909,256764 244726,258107 245008,258387 245660,258837 246439,258977 248658,258141 249035,258265 249916,259576 250283,259728 250673,259653 252368,258622 254257,258001 255545,257073 257821,256484 260497,253544 262382,250061 262705,249829 265195,248623 268718,248264 271706,247215 272068,247050 272300,246727 272043,245571 272058,245173 272384,244453 274213,243707 275422,242681 275792,242535 278130,242364 281180,241673 282589,242386 283384,242397 283831,243046 284868,243619 284868,243619 283160,246758 281760,247361 " />
    <polygon
       id="97357 GRAND-SANTI"
       points="84813,172884 83020,170779 81299,167681 79067,166995 78014,165823 76906,165452 75709,163887 73353,162506 71443,162096 69913,162014 69218,161650 64938,161953 62548,163242 62088,164716 60320,166813 59221,167208 58369,168011 56681,167250 54766,168546 54115,168987 52569,168705 51723,167904 47855,166108 47113,164766 45395,163845 45031,163688 44245,163736 42791,164341 42471,164575 41807,166000 39756,167170 39322,167807 39738,172936 40153,174047 40017,174808 39777,175123 37603,177419 36520,179071 36150,179211 35234,178497 34082,178229 31750,178275 31713,177079 31223,176483 29745,175945 28941,175060 26949,173778 24668,173279 23795,171061 23716,170670 24071,168320 25170,164073 25088,163287 24163,161542 23989,159554 23988,159156 24229,156776 24756,154853 24786,154457 24539,153709 24082,153054 23799,152773 23470,152550 22007,151914 21628,151830 21254,151936 19483,152807 18935,152330 18889,151941 19705,147632 18844,145006 19735,141568 17948,135046 20407,131978 20584,131621 21400,128992 21749,126247 21197,125192 23145,125487 23982,124652 24743,124428 29880,124243 31971,125381 33197,127847 33768,128395 34127,128568 36714,129553 37107,129618 39004,129040 39788,129120 40969,130684 41639,131103 43995,131424 45519,131878 45885,132036 46422,132624 47996,132803 49391,133544 49787,133582 52099,133165 53117,133758 53515,133745 55340,133020 57720,132916 59533,132122 65802,131081 66887,130584 68241,129139 70053,128384 70454,127720 70352,127335 70590,126468 71366,127375 71463,128140 71038,131295 69636,133694 69564,134486 69584,134884 70637,139949 70592,142318 72006,145150 72291,145428 72657,145584 73038,145469 74359,144584 75107,144672 78310,150166 78616,154513 79281,155957 80124,156802 82726,157790 84273,161409 84985,161760 86177,161692 88330,162416 92085,162067 91891,164362 93925,171326 93925,171326 85970,175717 85049,174435 " />
    <polygon
       id="97358 SAINT-ÉLIE"
       points="158158,196749 156837,194300 156715,192730 155834,191414 155555,190257 155362,189911 153643,188936 153354,188662 152663,187690 152361,186954 152144,186188 151947,184211 151975,183813 152155,183041 152564,182360 152825,182060 154985,180353 155406,177648 154227,176059 153255,173047 151248,171858 151049,171520 150857,169152 150575,168415 150303,168128 148111,167201 146735,165799 144772,165804 144383,165724 144088,165468 144431,164366 143575,162196 144731,161137 145035,160020 143508,157704 141592,157467 140907,157064 140653,155547 139810,153745 140680,151102 140382,149532 141021,145185 142355,144520 143907,141734 143801,139755 144266,137412 144005,135871 145137,134246 145283,132667 144313,131468 143490,129651 143212,129370 142854,129218 141269,129338 140534,129068 136715,125605 136360,124488 134925,124090 133542,122660 133150,121969 133022,121184 133058,120786 133653,118062 133661,117662 133400,117368 132210,117322 130980,116327 131787,114185 131090,112346 131167,111599 132514,110782 132880,109270 135154,107781 134550,105921 133035,104256 134147,102661 135914,101823 136830,99628 138212,98890 139261,97693 139469,96948 139071,95854 139651,94819 140557,94116 140418,93346 138350,92182 139282,91611 139846,89729 140694,88900 141703,86349 142932,84808 144078,84522 145338,85445 146109,85569 149716,82587 150140,81504 149820,80390 150517,77756 151921,79173 151904,79950 153862,80137 154876,80745 155586,81701 156319,81909 157441,81502 160190,81261 160539,81076 161004,80433 161106,80055 160831,78904 161603,76646 162217,76177 162608,76094 163792,76004 164140,76174 164359,76497 165118,78761 166642,80038 167098,81110 167368,81371 168517,81610 168821,81865 169622,82754 169989,83882 170239,84183 170599,84336 172129,84729 172868,84564 173071,84231 172783,83096 173070,82371 176016,81186 179987,81240 181524,80831 184228,81516 185711,82108 187847,83174 188089,83918 187133,84639 186357,84807 186135,85124 186343,85463 190054,87719 191395,89192 193191,89891 192544,91241 192714,92001 193159,92662 195199,94545 194920,95122 193434,95561 192803,97428 191429,99856 191270,100218 190322,105304 190314,105701 190985,107125 193301,107316 193690,107407 193759,107756 193257,108343 191016,109045 190082,111895 190378,112155 189829,112734 189298,114215 189896,116445 191374,117698 190916,119187 190917,120781 192141,123239 191374,124080 191432,124442 191750,124650 193258,125156 193649,125182 195073,124753 195213,126249 196005,127139 197681,128196 197901,128527 197968,128916 197386,130389 197423,131181 197597,131539 198989,132194 200046,133876 200106,135038 201006,135775 201149,137361 201798,137805 202166,137650 202284,139227 200965,140624 201244,141755 199991,142637 199475,144085 197966,143964 197443,145401 195972,145970 195327,146428 195104,146754 193912,149704 193862,150089 194008,150444 194672,151403 195077,154947 196171,156604 197868,158281 198283,159388 198281,159785 197823,161714 197036,162981 198102,164105 198419,165653 198131,168001 198509,169093 198054,170617 198453,172931 197967,173489 196059,173491 196133,173881 194139,175137 194014,176655 192118,177229 190835,178680 189673,178878 188731,179609 187801,181782 188067,183259 185291,184569 185499,187244 184559,188987 184325,189308 183999,189525 182866,189882 181336,189856 180883,190494 180677,192027 179546,193646 175099,195381 173823,197319 172013,196729 170047,198648 167729,199174 166162,200962 161911,203143 161499,204255 161499,204255 160380,203131 159710,201686 " />
    <polygon
       id="97360 APATOU"
       points="70053,128384 68241,129139 66887,130584 65802,131081 59533,132122 57720,132916 55340,133020 53515,133745 53117,133758 52099,133165 49787,133582 49391,133544 47996,132803 46422,132624 45885,132036 45519,131878 43995,131424 41639,131103 40969,130684 39788,129120 39004,129040 37107,129618 36714,129553 34127,128568 33768,128395 33197,127847 31971,125381 29880,124243 24743,124428 23982,124652 23145,125487 21197,125192 19692,123377 19261,122269 19649,120736 20719,119630 20482,117709 19795,116318 20408,114055 19346,112970 17767,113073 17377,113004 17036,112801 16252,111433 16227,111037 16842,106734 16092,103267 16128,96580 15905,94653 14951,94028 14844,93646 15341,92659 18814,89001 19262,86270 18874,84340 19612,82985 19505,80611 20671,79014 21399,77165 21806,75630 21798,73648 21943,73277 22467,72686 22804,72474 24311,71978 26304,70669 26591,70393 27124,69339 27080,68160 27801,67216 29223,66530 29733,64642 31004,63112 34047,57547 36482,54926 37236,53524 39041,51969 39849,54080 39640,56001 40609,57721 40916,57971 42679,58864 43835,58650 44344,60944 44155,62498 46790,64177 47453,65160 48462,65766 48756,67687 48777,68081 48078,69498 47867,69833 45542,71962 43935,74219 43806,75776 44694,77972 44363,79840 42512,80514 42036,81585 40760,82485 39852,83758 38373,85031 38158,85358 37135,87889 38403,88583 38464,90118 39944,91383 40672,93158 43297,92959 44314,94142 45111,95927 45175,97097 46152,98300 46293,98666 46203,100212 47018,101522 49222,102253 50738,101869 51450,102160 52570,102443 53321,104243 54809,106087 54271,106578 53088,106547 50950,104835 50187,104978 49848,105671 49823,106858 48421,108238 48202,108991 48322,109370 49980,111077 50306,111305 51025,111640 53277,112417 53673,112447 55161,111910 55931,112019 56145,112353 56298,114284 58211,114696 61216,116629 63152,116975 65462,118488 66245,118597 67380,118241 70403,116394 71591,116392 72968,117139 73148,117895 72793,119033 70012,124221 70051,125404 70590,126468 70590,126468 70352,127335 70454,127720 " />
    <path
       d="m 80478,0 -989,76 -249,268 233,285 739,298 561,206 786,103 1721,-458 962,198 L 82836,328 80478,0 z m -5002,89 -1510,305 -1984,-149 -330,1126 -4483,7778 -427,2283 1994,26 1586,-1169 730,-130 376,1505 344,129 773,-825 336,144 652,959 1486,460 1528,1823 1934,337 1488,1280 751,113 474,-599 1538,-4095 1819,-724 2443,-3634 -18,-1167 L 88319,2108 86360,1753 79998,1587 75476,89 z"
       id="97361 AWALA-YALIMAPO"
       inkscape:connector-curvature="0" />
    <polygon
       id="97362 PAPAICHTON"
       points="49421,214893 46695,215399 45644,214874 45241,214200 45221,213006 45287,212614 46308,211400 46423,211019 46212,210266 45216,209658 42085,209166 41115,208514 39595,205281 39662,203371 36805,202010 35713,200862 35292,200189 33887,195230 32186,191660 29957,188869 28174,188109 28281,186189 29352,182792 29131,182028 29363,180858 31750,178275 34082,178229 35234,178497 36150,179211 36520,179071 37603,177419 39777,175123 40017,174808 40153,174047 39738,172936 39322,167807 39756,167170 41807,166000 42471,164575 42791,164341 44245,163736 45031,163688 45395,163845 47113,164766 47855,166108 51723,167904 52569,168705 54115,168987 54766,168546 56681,167250 58369,168011 59221,167208 60320,166813 62088,164716 62548,163242 64938,161953 69218,161650 69913,162014 71443,162096 73353,162506 75709,163887 76906,165452 78014,165823 79067,166995 81299,167681 83020,170779 84813,172884 85049,174435 85970,175717 93925,171326 94476,172391 94726,173969 94458,177546 95110,178972 94755,180525 93903,181794 95246,182477 97096,183963 97454,184624 97432,185021 97203,185783 96968,186098 94969,187407 94694,187692 94591,188064 94645,188456 95163,189525 94840,193815 95649,194652 95565,195744 96612,196048 95983,196523 95298,196189 93723,196289 91798,198299 91395,199415 89979,200074 89025,201333 87289,202315 85807,202088 85121,202483 83953,202551 81312,204913 80958,206813 79207,207671 77125,210061 76787,210274 73427,211516 71641,210727 70526,211035 66167,214529 64145,217952 63841,218203 63453,218227 63131,218007 61991,216375 60556,215737 57555,216681 55290,219448 55290,219448 54079,216545 52946,215474 " />
  </g>
</svg>
