<?xml version="1.0" encoding="UTF-8" standalone="no"?>
<svg
   xmlns:dc="http://purl.org/dc/elements/1.1/"
   xmlns:cc="http://creativecommons.org/ns#"
   xmlns:rdf="http://www.w3.org/1999/02/22-rdf-syntax-ns#"
   xmlns:svg="http://www.w3.org/2000/svg"
   xmlns="http://www.w3.org/2000/svg"
   xmlns:sodipodi="http://sodipodi.sourceforge.net/DTD/sodipodi-0.dtd"
   xmlns:inkscape="http://www.inkscape.org/namespaces/inkscape"
   viewBox="0 0 45333 53138"
   version="1.1"
   id="svg2"
   inkscape:version="0.48.4 r9939"
   width="100%"
   height="100%"
   sodipodi:docname="Blank_Map_of_Martinique_Department,_France,_with_Communes.svg">
  <metadata
     id="metadata44">
    <rdf:RDF>
      <cc:Work
         rdf:about="">
        <dc:format>image/svg+xml</dc:format>
        <dc:type
           rdf:resource="http://purl.org/dc/dcmitype/StillImage" />
      </cc:Work>
    </rdf:RDF>
  </metadata>
  <defs
     id="defs42" />
  <sodipodi:namedview
     pagecolor="#ffffff"
     bordercolor="#666666"
     borderopacity="1"
     objecttolerance="10"
     gridtolerance="10"
     guidetolerance="10"
     inkscape:pageopacity="0"
     inkscape:pageshadow="2"
     inkscape:window-width="1863"
     inkscape:window-height="1056"
     id="namedview40"
     showgrid="false"
     inkscape:zoom="0.01707427"
     inkscape:cx="22666.5"
     inkscape:cy="26569"
     inkscape:window-x="57"
     inkscape:window-y="24"
     inkscape:window-maximized="1"
     inkscape:current-layer="svg2" />
  <g
     style="fill:#b9b9b9;fill-opacity:1;stroke:#ffffff;stroke-width:200;stroke-opacity:1"
     id="g4">
    <polygon
       id="97201 L'AJOUPA-BOUILLON"
       points="9226,8544 8676,8044 7548,7849 7022,7334 7067,7019 9214,7691 11183,5873 13356,5072 14103,5219 13881,7060 13026,7802 13026,7802 11049,8775 " />
    <polygon
       id="97202 LES ANSES-D'ARLET"
       points="18179,46646 17597,45645 16252,44980 16329,43449 15581,42598 15679,41484 14391,40743 14621,39608 15467,38326 16586,37240 16973,37297 18708,41061 19690,42520 18945,43815 19222,45296 18951,46007 19255,46699 19255,46699 18914,46891 " />
    <polygon
       id="97203 BASSE-POINTE"
       points="11183,5873 9214,7691 7067,7019 7017,6939 9121,4266 11089,543 13971,1699 14766,2567 15508,2761 14103,5219 14103,5219 13356,5072 " />
    <polygon
       id="97204 LE CARBET"
       points="5426,16183 6460,16055 7368,16498 7962,16091 8493,16561 11644,17606 10885,17474 7953,18326 7668,19409 8125,20470 6730,22512 6730,22512 4937,19160 4992,18424 " />
    <polygon
       id="97205 CASE-PILOTE"
       points="9517,25910 8499,25361 8220,24647 10797,23152 10604,22490 11359,20822 12289,20772 13184,21946 13343,22704 13106,24987 12234,26261 12172,27747 12172,27747 10392,27131 " />
    <polygon
       id="97206 LE DIAMANT"
       points="19222,45296 18945,43815 19690,42520 18708,41061 20149,40658 21150,41175 22240,40869 23699,41210 24196,40664 24562,40750 24508,41120 25464,41658 26101,41297 26777,41615 27095,42950 26616,43448 26862,43691 26642,44430 25748,45129 22635,44035 21509,44330 20183,45124 19844,46224 19255,46699 19255,46699 18951,46007 " />
    <polygon
       id="97207 DUCOS"
       points="27827,36412 27163,36071 26065,36329 25206,35118 24834,35129 24823,34005 25578,32642 27339,31121 27933,30124 29397,29654 30543,29817 31575,30585 31802,31933 30321,34264 29865,35619 29865,35619 28567,36323 " />
    <polygon
       id="97208 FONDS-SAINT-DENIS"
       points="12575,19511 11644,17606 8493,16561 7962,16091 7686,15841 7800,14843 10373,14625 10718,14458 13735,16010 15295,14960 15540,15945 16226,16706 15611,16981 15414,17317 15760,18826 15077,18952 13912,20233 13912,20233 13520,19693 " />
    <polygon
       id="97209 FORT-DE-FRANCE"
       points="20689,31074 20359,31265 18814,31078 18176,30644 15080,30756 15981,28619 15918,26674 14222,23220 13727,20960 13912,20233 15077,18952 15760,18826 16366,19317 16399,19703 15788,20681 16013,22601 17941,23972 19188,25464 20598,26098 21075,27074 20918,30091 20918,30091 20599,30306 " />
    <polygon
       id="97210 LE FRANÇOIS"
       points="32508,32812 31802,31933 31575,30585 30543,29817 30737,29482 30280,26927 32530,26829 34597,24591 35749,24538 36246,25047 35482,24990 35234,25256 36364,26253 36026,28096 38275,28538 38212,29234 38859,30198 38735,30976 39236,31590 40574,31375 41110,31819 41037,32165 38979,33151 37489,33495 36025,34698 36025,34698 34351,33170 " />
    <polygon
       id="97211 GRAND'RIVIÈRE"
       points="3986,3729 2645,1895 5231,473 6675,181 6651,2930 6977,4874 6727,6809 6727,6809 4273,5198 " />
    <polygon
       id="97212 GROS-MORNE"
       points="20340,20162 17876,19058 16307,17922 15611,16981 16226,16706 17734,15723 18777,15477 19037,14800 21597,15768 22374,15735 24893,16596 26113,17539 27279,19057 27234,19795 26857,20427 26158,20676 25952,21389 25378,22583 25378,22583 22212,20493 " />
    <polygon
       id="97213 LE LAMENTIN"
       points="23552,33239 22478,32181 22956,30757 22595,29678 22288,29455 20918,30091 21075,27074 20598,26098 20576,25717 23141,25033 24067,24407 25125,24288 25084,22826 25378,22583 25952,21389 26795,22076 27708,23766 29009,24562 30280,26927 30737,29482 30543,29817 29397,29654 27933,30124 27339,31121 25578,32642 24823,34005 24834,35129 24834,35129 23779,34743 " />
    <polygon
       id="97214 LE LORRAIN"
       points="15324,12889 15226,12138 14185,11738 14008,11396 13092,9328 13026,7802 13881,7060 14103,5219 15508,2761 16340,3500 17429,3806 18533,4816 19268,4957 19915,4557 20392,5118 19535,6395 18007,13658 17364,14112 15456,14565 15456,14565 14999,13578 " />
    <polygon
       id="97215 MACOUBA"
       points="6977,4874 6651,2930 6675,181 8563,0 11089,543 9121,4266 7017,6939 7017,6939 6727,6809 " />
    <polygon
       id="97216 LE MARIGOT"
       points="15295,14960 15456,14565 17364,14112 18007,13658 19535,6395 20392,5118 21400,5453 21421,5826 22313,6467 22643,7533 19816,10094 19909,11191 19010,13262 19037,14800 18777,15477 17734,15723 16226,16706 16226,16706 15540,15945 " />
    <polygon
       id="97217 LE MARIN"
       points="38433,44928 35848,47198 35011,46394 35679,46051 35934,44908 37132,42902 38358,41914 39557,39959 39947,39915 41356,41240 42518,41197 43972,41759 44055,42130 44741,42411 44945,42732 45333,43801 44969,44456 44245,44434 44020,44741 41731,44615 39609,45542 39609,45542 39212,44969 " />
    <polygon
       id="97218 LE MORNE-ROUGE"
       points="10718,14458 10373,14625 8814,13472 7780,13113 8017,11991 8981,10331 8676,8044 9226,8544 11049,8775 13026,7802 13092,9328 14008,11396 14185,11738 15226,12138 15324,12889 14999,13578 15456,14565 15295,14960 15295,14960 13735,16010 " />
    <polygon
       id="97219 LE PRÊCHEUR"
       points="0,6510 994,3961 2000,2311 2645,1895 3986,3729 4273,5198 6727,6809 7017,6939 7067,7019 7022,7334 6353,7286 5192,8208 2460,9531 1635,10788 1635,10788 240,8447 " />
    <polygon
       id="97220 RIVIÈRE-PILOTE"
       points="34642,45102 34071,42084 33165,40852 33121,40084 32533,39654 33216,38884 32984,37484 34415,37752 35869,37528 36659,36398 37769,37871 39132,38518 39557,39959 38358,41914 37132,42902 35934,44908 35679,46051 35011,46394 35011,46394 34535,45836 " />
    <polygon
       id="97221 RIVIÈRE-SALÉE"
       points="29987,42047 28658,41526 26777,41615 26101,41297 25464,41658 24508,41120 24562,40750 24623,37191 25405,36113 26065,36329 27163,36071 27827,36412 28567,36323 29865,35619 32366,36508 32984,37484 33216,38884 32533,39654 32533,39654 32020,41035 " />
    <polygon
       id="97222 LE ROBERT"
       points="27708,23766 26795,22076 25952,21389 26158,20676 26857,20427 27234,19795 27959,20027 28239,19320 31196,18610 32328,17660 31974,18341 32171,18666 33553,18104 33905,18229 34332,19283 35034,19609 34729,20263 34403,20470 32920,20901 32498,21542 31501,21919 31042,22955 31972,24135 32466,24721 32849,24712 34309,23545 36149,23849 37138,23360 37344,23683 37098,24407 36246,25047 35749,24538 34597,24591 32530,26829 30280,26927 30280,26927 29009,24562 " />
    <polygon
       id="97223 SAINT-ESPRIT"
       points="34415,37752 32984,37484 32366,36508 29865,35619 30321,34264 31802,31933 32508,32812 34351,33170 36025,34698 36659,36398 36659,36398 35869,37528 " />
    <polygon
       id="97224 SAINT-JOSEPH"
       points="17941,23972 16013,22601 15788,20681 16399,19703 16366,19317 15760,18826 15414,17317 15611,16981 16307,17922 17876,19058 20340,20162 22212,20493 25378,22583 25084,22826 25125,24288 24067,24407 23141,25033 20576,25717 20598,26098 20598,26098 19188,25464 " />
    <polygon
       id="97225 SAINT-PIERRE"
       points="6460,16055 5426,16183 5695,15463 5404,14360 3472,12487 2702,11145 1635,10788 2460,9531 5192,8208 6353,7286 7022,7334 7548,7849 8676,8044 8981,10331 8017,11991 7780,13113 8814,13472 10373,14625 7800,14843 7686,15841 7962,16091 7962,16091 7368,16498 " />
    <polygon
       id="97226 SAINTE-ANNE"
       points="44234,46719 43870,48216 42816,49811 41744,49787 41471,50045 41839,50724 42518,51075 42295,51400 41510,51393 40602,52688 39928,53073 39534,53138 38746,53083 38410,52886 37609,51997 37409,51654 36618,50472 37998,48438 37503,47429 37662,46934 38281,47500 38759,47376 38759,46527 39431,46580 39609,45542 41731,44615 44020,44741 44020,44741 44983,45862 " />
    <polygon
       id="97227 SAINTE-LUCE"
       points="32148,45785 29884,45477 28906,44874 27827,45158 26862,43691 26616,43448 27095,42950 26777,41615 28658,41526 29987,42047 32020,41035 32533,39654 33121,40084 33165,40852 34071,42084 34642,45102 34642,45102 33896,45018 " />
    <polygon
       id="97228 SAINTE-MARIE"
       points="19037,14800 19010,13262 19909,11191 19816,10094 22643,7533 23357,7778 24085,7573 24904,9625 26679,11029 27611,12623 26220,13895 25101,14067 24701,14722 23974,14914 23132,15699 22374,15735 22374,15735 21597,15768 " />
    <polygon
       id="97229 SCHŒLCHER"
       points="12172,27747 12234,26261 13106,24987 13343,22704 13184,21946 12289,20772 12575,19511 13520,19693 13912,20233 13727,20960 14222,23220 15918,26674 15981,28619 15080,30756 15080,30756 13449,28576 " />
    <polygon
       id="97230 LA TRINITÉ"
       points="28239,19320 27959,20027 27234,19795 27279,19057 26113,17539 24893,16596 22374,15735 23132,15699 23974,14914 24701,14722 25101,14067 26220,13895 27611,12623 28216,13107 28735,14901 29264,15404 30537,13530 31900,12783 33416,12916 36678,10874 37817,11104 38387,11634 38262,12747 37916,12899 36920,12296 36221,12563 36469,13605 35982,14590 36051,15338 35759,15540 34588,15464 33890,14550 32812,14063 31643,13997 31358,14267 30756,15189 31130,15817 30694,16767 31446,17594 32483,17319 32328,17660 32328,17660 31196,18610 " />
    <polygon
       id="97231 LES TROIS-ÎLETS"
       points="23699,41210 22240,40869 21150,41175 20149,40658 18708,41061 16973,37297 17745,37291 19234,35573 20658,36000 20661,37052 21710,37539 24391,37501 24623,37191 24562,40750 24562,40750 24196,40664 " />
    <polygon
       id="97232 LE VAUCLIN"
       points="41356,41240 39947,39915 39557,39959 39132,38518 37769,37871 36659,36398 36025,34698 37489,33495 38979,33151 41037,32165 41302,32882 40908,33545 41122,33865 42006,34636 43038,34232 43214,34436 42606,35880 43252,37269 42932,37969 43698,37941 43740,38682 42887,39326 42787,40066 43864,40265 43972,41759 43972,41759 42518,41197 " />
    <polygon
       id="97233 LE MORNE-VERT"
       points="8125,20470 7668,19409 7953,18326 10885,17474 11644,17606 12575,19511 12289,20772 11359,20822 11359,20822 9132,20890 " />
    <polygon
       id="97234 BELLEFONTAINE"
       points="8125,20470 9132,20890 11359,20822 10604,22490 10797,23152 8220,24647 8220,24647 6730,22512 " />
  </g>
</svg>
